<svg id="object" xmlns="http://www.w3.org/2000/svg" xmlns:xlink="http://www.w3.org/1999/xlink" viewBox="0 0 2702 1846.62"><defs><style>.cls-1{fill:none;}.cls-2{fill:#969696;}.cls-3{fill:#e2e2e2;}.cls-4{fill:#2fa8b5;}.cls-5{fill:#1c1c1c;}.cls-6{fill:#d1d1d1;}.cls-7{fill:#9b9b9b;}.cls-8{fill:#7f7f7f;}.cls-9{fill:#e5e5e5;}.cls-10,.cls-13,.cls-27,.cls-32{fill:#fff;}.cls-10{opacity:0.2;}.cls-11{opacity:0.3;}.cls-12{fill:#3f3f3f;}.cls-14{fill:#4d2256;}.cls-15{clip-path:url(#clip-path);}.cls-16{fill:#eace8b;}.cls-17{fill:#d3b271;}.cls-18{fill:#d83d00;}.cls-19{fill:#edd89d;}.cls-20{fill:#ae4bbc;}.cls-21{fill:#9c3dad;}.cls-22{fill:#d3d3d3;}.cls-23{clip-path:url(#clip-path-2);}.cls-24{fill:#898989;}.cls-25{clip-path:url(#clip-path-3);}.cls-26{fill:#c1c1c1;}.cls-27{opacity:0.1;}.cls-28{clip-path:url(#clip-path-4);}.cls-29{clip-path:url(#clip-path-5);}.cls-30{clip-path:url(#clip-path-6);}.cls-31{clip-path:url(#clip-path-7);}.cls-32{opacity:0.7;}.cls-33{clip-path:url(#clip-path-8);}.cls-34{fill:#ed9514;}.cls-35{fill:#d6d6d6;}.cls-36{fill:#c905ad;}.cls-37{fill:#066bc6;}.cls-38{fill:#004375;}.cls-39{fill:#3a3a3a;}.cls-40{fill:#fcfcfc;}.cls-41{fill:#ffbc00;}.cls-42{fill:#f2501d;}.cls-43{fill:#3eb1ba;}.cls-44{fill:#efefef;}.cls-45{fill:#bababa;}.cls-46{fill:#14c6bd;}</style><clipPath id="clip-path" transform="translate(-1157 -1317.38)"><circle class="cls-1" cx="1976.61" cy="1674.48" r="323.73" transform="translate(-605.1 1888.12) rotate(-45)"/></clipPath><clipPath id="clip-path-2" transform="translate(-1157 -1317.38)"><path class="cls-2" d="M3858.2,2628.3c0,48.2-127.77,87.28-285.38,87.28s-285.37-39.08-285.37-87.28S3415.21,2541,3572.82,2541,3858.2,2580.1,3858.2,2628.3Z"/></clipPath><clipPath id="clip-path-3" transform="translate(-1157 -1317.38)"><path class="cls-1" d="M3859,2627H3745v67.38c-50-10.82-107.72-17.22-171.5-17.22s-123.5,6.4-171.5,17.22V2627H3287v137h.51a3.5,3.5,0,0,0-.06.66c0,48.21,127.76,87.17,285.37,87.17s285.38-38.91,285.38-87.12a3.66,3.66,0,0,0-.08-.71h.88Z"/></clipPath><clipPath id="clip-path-4" transform="translate(-1157 -1317.38)"><path class="cls-2" d="M3858.2,2429.32c0,48.2-127.77,87.28-285.38,87.28s-285.37-39.08-285.37-87.28S3415.21,2342,3572.82,2342,3858.2,2381.12,3858.2,2429.32Z"/></clipPath><clipPath id="clip-path-5" transform="translate(-1157 -1317.38)"><path class="cls-1" d="M3859,2428H3745v67.4c-50-10.81-107.72-17.22-171.5-17.22s-123.5,6.41-171.5,17.22V2428H3287v137h.51a3.78,3.78,0,0,0-.06.67c0,48.21,127.76,87.18,285.37,87.18s285.38-38.92,285.38-87.13a3.81,3.81,0,0,0-.08-.72h.88Z"/></clipPath><clipPath id="clip-path-6" transform="translate(-1157 -1317.38)"><path class="cls-3" d="M3858.2,2235.58c0,48.2-127.77,87.28-285.38,87.28s-285.37-39.08-285.37-87.28,127.76-87.28,285.37-87.28S3858.2,2187.38,3858.2,2235.58Z"/></clipPath><clipPath id="clip-path-7" transform="translate(-1157 -1317.38)"><path class="cls-1" d="M3859,2235H3745v66.66c-50-10.82-107.72-17.22-171.5-17.22s-123.5,6.4-171.5,17.22V2235H3287v137h.51s-.06,0-.06.3c0,48.2,127.76,87,285.37,87s285.38-38.64,285.38-86.85a.85.85,0,0,0-.08-.44h.88Z"/></clipPath><clipPath id="clip-path-8" transform="translate(-1157 -1317.38)"><path class="cls-4" d="M3362.93,2383c0,135.3-109.68,245-245,245s-245-109.68-245-245,109.68-245,245-245S3362.93,2247.71,3362.93,2383Z"/></clipPath></defs><title>AdobeStock_168004872</title><rect class="cls-5" x="309" y="348.62" width="1939" height="1360" rx="58.92"/><path class="cls-6" d="M1157,2937v68.5c0,14.63,17.38,30.5,37.15,30.5H3672.93a30.48,30.48,0,0,0,31.07-30.5V2937Z" transform="translate(-1157 -1317.38)"/><path class="cls-7" d="M1157.52,3008c2.08,17,18.17,28,36.62,28H3672.92c18.44,0,32.71-11,34.54-28Z" transform="translate(-1157 -1317.38)"/><path class="cls-8" d="M2226.38,2937c10.19,15,27.54,29,47.23,29h319.86c19.69,0,37-14,47.23-29Z" transform="translate(-1157 -1317.38)"/><rect class="cls-9" x="380" y="431.62" width="1803" height="1095"/><polygon class="cls-10" points="1980.72 1526.62 2183 1526.62 2183 431.62 1042.91 431.62 1980.72 1526.62"/><path class="cls-11" d="M2344,1762.13c0,180.94-146.68,327.63-327.63,327.63s-327.62-146.69-327.62-327.63,146.68-327.63,327.62-327.63S2344,1581.19,2344,1762.13Z" transform="translate(-1157 -1317.38)"/><rect class="cls-12" x="374" y="431.62" width="497" height="1095"/><rect class="cls-13" x="628" y="877.62" width="182" height="34"/><rect class="cls-13" x="547" y="958.62" width="263" height="34"/><rect class="cls-13" x="588" y="1038.62" width="222" height="34"/><rect class="cls-13" x="520" y="1119.62" width="290" height="33"/><rect class="cls-13" x="628" y="1199.62" width="182" height="33"/><circle class="cls-13" cx="816.4" cy="357.91" r="357.91"/><circle class="cls-14" cx="1973.4" cy="1675.29" r="323.73" transform="translate(-1763.61 568.71) rotate(-45)"/><g class="cls-15"><path class="cls-16" d="M2101.39,1734h-26.11c-5.28,0-24.4.47-29-4.14-5.29-5.29-7.27-19.37-7.27-23.54V1695H1930v11.33c0,4.19-1,18.24-6.23,23.53-4.61,4.61-22.69,4.14-28,4.14h-28.16c-45.3,0-85.64,38.68-85.64,84v181h401V1818C2183,1772.68,2146.68,1734,2101.39,1734Z" transform="translate(-1157 -1317.38)"/><path class="cls-17" d="M2101.39,1734h-26.11c-5.28,0-24.4.47-29-4.14-5.29-5.29-7.27-19.37-7.27-23.54V1695h-53v304h197V1818C2183,1772.68,2146.68,1734,2101.39,1734Z" transform="translate(-1157 -1317.38)"/><path class="cls-18" d="M2102,1620v-76.42c0-69.89-46.31-102.88-112.61-102.88s-122.39,33-122.39,102.88V1620Z" transform="translate(-1157 -1317.38)"/><path class="cls-19" d="M1988.1,1455.06c-55.49,0-105.1,27.61-105.1,86.12V1612h3.19c2,53,46.19,101.84,100.38,101.84S2084.89,1665,2086.94,1612H2085v-70.82C2085,1482.67,2043.58,1455.06,1988.1,1455.06Z" transform="translate(-1157 -1317.38)"/><path class="cls-16" d="M1989.36,1455.06c-1.36,0-3.36,0-3.36.06v257.61c53,0,98.89-47.73,100.94-100.73H2085v-70.82C2085,1482.67,2044.85,1455.06,1989.36,1455.06Z" transform="translate(-1157 -1317.38)"/><path class="cls-19" d="M1893,1603c0,7.2-6.24,15-13.22,15h0c-7,0-12.74-7.82-12.74-15v-32.13a12.77,12.77,0,0,1,12.74-12.85h0c7,0,13.22,5.65,13.22,12.85Z" transform="translate(-1157 -1317.38)"/><path class="cls-18" d="M1922,1473.09s47.15,74,98.72,88.07c83.69,22.92,58.78,137.55,66.18,105.33,5.31-23.16,18.63-112.07,16.61-129.3l-26.42-57.63-55-24.5-42.68-14-47.55,14Z" transform="translate(-1157 -1317.38)"/><path class="cls-20" d="M2101.39,1734h-26.11c-5.28,0-22.94.47-27.55-4.14-.11-.12-.2.23-.31.11l-60.85,37-59.4-44a14.12,14.12,0,0,1-3.83,6.81c-4.61,4.62-22.26,4.21-27.54,4.21h-28.16c-45.3,0-85.64,38.68-85.64,84v181h401V1818C2183,1772.68,2146.68,1734,2101.39,1734Z" transform="translate(-1157 -1317.38)"/><path class="cls-21" d="M2101.39,1734h-26.11c-5.28,0-22.94.47-27.55-4.14-.11-.12-.48.23-.59.11L1986,1767.23V1999h197V1818C2183,1772.68,2146.68,1734,2101.39,1734Z" transform="translate(-1157 -1317.38)"/><path class="cls-13" d="M1997.42,1788.9a11.39,11.39,0,1,1-11.39-11.38A11.39,11.39,0,0,1,1997.42,1788.9Z" transform="translate(-1157 -1317.38)"/><path class="cls-13" d="M1970.09,1784.35A11.39,11.39,0,1,1,1958.7,1773,11.38,11.38,0,0,1,1970.09,1784.35Z" transform="translate(-1157 -1317.38)"/><path class="cls-13" d="M1947.32,1766.13a11.39,11.39,0,1,1-11.39-11.39A11.39,11.39,0,0,1,1947.32,1766.13Z" transform="translate(-1157 -1317.38)"/><path class="cls-13" d="M1929.1,1743.36a11.39,11.39,0,1,1-11.39-11.39A11.39,11.39,0,0,1,1929.1,1743.36Z" transform="translate(-1157 -1317.38)"/><path class="cls-13" d="M2002,1784.35a11.39,11.39,0,1,0,11.39-11.39A11.38,11.38,0,0,0,2002,1784.35Z" transform="translate(-1157 -1317.38)"/><path class="cls-13" d="M2024.75,1766.13a11.39,11.39,0,1,0,11.38-11.39A11.38,11.38,0,0,0,2024.75,1766.13Z" transform="translate(-1157 -1317.38)"/><path class="cls-13" d="M2043,1743.36a11.39,11.39,0,1,0,11.38-11.39A11.38,11.38,0,0,0,2043,1743.36Z" transform="translate(-1157 -1317.38)"/></g><path class="cls-22" d="M3859,2627H3745v67.38c-50-10.82-107.72-17.22-171.5-17.22s-123.5,6.4-171.5,17.22V2627H3287v137h.51a3.5,3.5,0,0,0-.06.66c0,48.21,127.76,87.17,285.37,87.17s285.38-38.91,285.38-87.12a3.66,3.66,0,0,0-.08-.71h.88Z" transform="translate(-1157 -1317.38)"/><path class="cls-2" d="M3858.2,2628.3c0,48.2-127.77,87.28-285.38,87.28s-285.37-39.08-285.37-87.28S3415.21,2541,3572.82,2541,3858.2,2580.1,3858.2,2628.3Z" transform="translate(-1157 -1317.38)"/><g class="cls-23"><polygon class="cls-24" points="2197.22 1228.51 2660.61 1371.97 2519.24 1415.19 2346.44 1214.48 2197.22 1228.51"/></g><g class="cls-25"><path class="cls-26" d="M3797,2879H3660V2711.5c106-13.39,137-28.45,137-28.45Z" transform="translate(-1157 -1317.38)"/></g><path class="cls-27" d="M3381.7,2668.61c20.94,25.77,115.2,28.07,115.2,28.07l62.84-73.88Z" transform="translate(-1157 -1317.38)"/><path class="cls-22" d="M3859,2428H3745v67.4c-50-10.81-107.72-17.22-171.5-17.22s-123.5,6.41-171.5,17.22V2428H3287v137h.51a3.78,3.78,0,0,0-.06.67c0,48.21,127.76,87.18,285.37,87.18s285.38-38.92,285.38-87.13a3.81,3.81,0,0,0-.08-.72h.88Z" transform="translate(-1157 -1317.38)"/><path class="cls-2" d="M3858.2,2429.32c0,48.2-127.77,87.28-285.38,87.28s-285.37-39.08-285.37-87.28S3415.21,2342,3572.82,2342,3858.2,2381.12,3858.2,2429.32Z" transform="translate(-1157 -1317.38)"/><g class="cls-28"><polygon class="cls-24" points="2197.22 1029.53 2660.61 1172.99 2519.24 1216.21 2346.44 1015.5 2197.22 1029.53"/></g><g class="cls-29"><path class="cls-26" d="M3797,2680H3660V2512.52c106-13.39,137-28.45,137-28.45Z" transform="translate(-1157 -1317.38)"/></g><path class="cls-27" d="M3381.7,2469.64c20.94,25.76,115.2,28.07,115.2,28.07l62.84-73.88Z" transform="translate(-1157 -1317.38)"/><path class="cls-22" d="M3859,2235H3745v66.66c-50-10.82-107.72-17.22-171.5-17.22s-123.5,6.4-171.5,17.22V2235H3287v137h.51s-.06,0-.06.3c0,48.2,127.76,87,285.37,87s285.38-38.64,285.38-86.85a.85.85,0,0,0-.08-.44h.88Z" transform="translate(-1157 -1317.38)"/><path class="cls-3" d="M3858.2,2235.58c0,48.2-127.77,87.28-285.38,87.28s-285.37-39.08-285.37-87.28,127.76-87.28,285.37-87.28S3858.2,2187.38,3858.2,2235.58Z" transform="translate(-1157 -1317.38)"/><g class="cls-30"><polygon class="cls-26" points="2197.22 835.79 2660.61 979.25 2519.24 1022.47 2346.44 821.76 2197.22 835.79"/></g><g class="cls-31"><polygon class="cls-26" points="2640 1169.62 2503 1169.62 2503 960.62 2595.88 960.62 2640 972.95 2640 1169.62"/></g><path class="cls-32" d="M3381.7,2275.89c20.94,25.77,115.2,28.07,115.2,28.07l62.84-73.87Z" transform="translate(-1157 -1317.38)"/><path class="cls-11" d="M3417.71,2430.17c0,149.58-121.26,270.84-270.85,270.84S2876,2579.75,2876,2430.17s121.26-270.84,270.83-270.84S3417.71,2280.59,3417.71,2430.17Z" transform="translate(-1157 -1317.38)"/><circle class="cls-13" cx="3117.96" cy="2383" r="270.84" transform="translate(-1928.81 1585.31) rotate(-45)"/><path class="cls-4" d="M3362.93,2383c0,135.3-109.68,245-245,245s-245-109.68-245-245,109.68-245,245-245S3362.93,2247.71,3362.93,2383Z" transform="translate(-1157 -1317.38)"/><g class="cls-33"><path class="cls-16" d="M3212.27,2442h-20.53c-4.15,0-18.29,1.21-21.91-2.41-4.16-4.16-4.83-14.38-4.83-17.66V2411h-86v10.94c0,3.29-1.47,13.5-5.63,17.65-3.62,3.62-18.56,2.41-22.7,2.41h-22.14c-35.61,0-63.53,32.09-63.53,67.7V2653h310V2509.7C3275,2474.09,3247.87,2442,3212.27,2442Z" transform="translate(-1157 -1317.38)"/><path class="cls-17" d="M3212.27,2442h-20.53c-4.15,0-18.29,1.21-21.91-2.41-4.16-4.16-4.83-14.38-4.83-17.66V2411h-43v242h153V2509.7C3275,2474.09,3247.87,2442,3212.27,2442Z" transform="translate(-1157 -1317.38)"/><path class="cls-34" d="M3210,2344v-56.34c0-50.63-36.44-74.51-84.46-74.51S3034,2237,3034,2287.66V2344Z" transform="translate(-1157 -1317.38)"/><path class="cls-19" d="M3124.22,2224.43c-43.62,0-82.22,21.7-82.22,67.69V2348h1.11c1.61,43,36.31,80.05,78.9,80.05s77.29-37.05,78.9-80.05H3200v-55.88C3200,2246.13,3167.83,2224.43,3124.22,2224.43Z" transform="translate(-1157 -1317.38)"/><path class="cls-16" d="M3124.74,2224.43c-1.08,0-2.74,0-2.74.05V2427c43,0,77.3-36,78.91-79H3200v-55.88C3200,2246.13,3168.35,2224.43,3124.74,2224.43Z" transform="translate(-1157 -1317.38)"/><path class="cls-16" d="M3214,2341c0,5.79-4.37,11-10.15,11h-.65c-5.79,0-9.2-5.21-9.2-11v-26.17c0-5.79,3.41-9.83,9.2-9.83h.65c5.78,0,10.15,4,10.15,9.83Z" transform="translate(-1157 -1317.38)"/><path class="cls-19" d="M3049,2341c0,5.79-4.32,11-10.1,11h-.65c-5.79,0-10.25-5.21-10.25-11v-26.17c0-5.79,4.46-9.83,10.25-9.83h.65c5.78,0,10.1,4,10.1,9.83Z" transform="translate(-1157 -1317.38)"/><path class="cls-34" d="M3071.29,2238.6s8.81,29.34,50.72,32.57,48.35-5.38,70.91,7.52,11,3.48,11,3.48l-17-42.67-37-15.07-32.83-8.2-38.09,8.2Z" transform="translate(-1157 -1317.38)"/><path class="cls-13" d="M3212.27,2442h-20.53c-4.15,0-18,1.21-21.65-2.41-.09-.09-.16.61-.25.51L3122,2469.41l-46.69-34.49c-.67,2.47-1.63,3.19-3,4.57-3.62,3.62-17.5,2.51-21.64,2.51h-22.14c-35.61,0-63.53,32.09-63.53,67.7V2653h310V2509.7C3275,2474.09,3247.87,2442,3212.27,2442Z" transform="translate(-1157 -1317.38)"/><path class="cls-35" d="M3212.27,2442h-20.53c-4.15,0-18,1.21-21.65-2.41-.09-.09-.17.61-.25.51L3122,2469.81V2653h153V2509.7C3275,2474.09,3247.87,2442,3212.27,2442Z" transform="translate(-1157 -1317.38)"/><polygon class="cls-36" points="1965 1152.43 1940.29 1169.76 1952.65 1182.31 1940.3 1335.62 1965 1335.62 1965 1152.43"/><polygon class="cls-37" points="1965 1152.43 1940.29 1169.76 1952.65 1182.31 1940.3 1335.62 1965 1335.62 1965 1152.43"/><polygon class="cls-38" points="1965 1152.43 1989.45 1169.76 1976.96 1182.31 1989.18 1335.62 1965 1335.62 1965 1152.43"/><path class="cls-39" d="M3213.06,2440h-21.23c-.95,0-2.41,1.09-4.12,1.08L3117.41,2653H3279V2507.53C3279,2471.37,3249.9,2440,3213.06,2440Z" transform="translate(-1157 -1317.38)"/><path class="cls-39" d="M3045.88,2440H3023c-36.84,0-66,31.37-66,67.53V2653h160.41l-61.07-212.19C3052.06,2441.12,3047.88,2440,3045.88,2440Z" transform="translate(-1157 -1317.38)"/><path class="cls-40" d="M3088.19,2379c3.07,14,18.1,25.06,36.22,25.06s33.15-11.06,36.23-25.06Z" transform="translate(-1157 -1317.38)"/></g><path class="cls-41" d="M2543,1561h395.87c37.55,0,70.11,31.81,70.11,75.22v180.36c0,43.43-32.56,82.42-70.11,82.42H2818v121.07L2710.27,1899H2543c-37.55,0-63-39-63-82.42V1636.22C2480,1592.81,2505.47,1561,2543,1561Z" transform="translate(-1157 -1317.38)"/><path class="cls-13" d="M2763.29,1790.55v-97.78h30.37q0-34.79-30.37-44.84v-38.26q85.14,5.8,85.14,110.93v70Z" transform="translate(-1157 -1317.38)"/><path class="cls-13" d="M2720.61,1670.31v97.79h-30.38q0,34.77,30.38,44.82v38.27q-85.16-5.81-85.14-110.93v-70Z" transform="translate(-1157 -1317.38)"/><circle class="cls-42" cx="1492.57" cy="2265.12" r="205.05" transform="translate(-2321.52 401.46) rotate(-45)"/><polygon class="cls-13" points="299 861.87 299 1044.68 425.49 953.27 299 861.87"/><polygon points="1240 1846.62 683 1846.62 683 1151.62 1121.28 1151.62 1174.24 1205.16 1240 1271.51 1240 1846.62"/><polygon points="1121 1271.62 1240.83 1271.62 1121 1151.97 1121 1271.62"/><polygon points="1240 1271.62 1121.28 1271.62 1240 1391.05 1240 1271.62"/><rect x="746" y="1269.62" width="216" height="25"/><rect x="746" y="1320.62" width="427" height="5"/><rect x="746" y="1330.62" width="427" height="6"/><rect x="746" y="1342.62" width="427" height="5"/><rect x="746" y="1354.62" width="427" height="5"/><rect x="746" y="1365.62" width="427" height="6"/><rect x="746" y="1376.62" width="427" height="5"/><rect x="746" y="1388.62" width="427" height="6"/><rect x="746" y="1399.62" width="293" height="6"/><rect x="746" y="1433.62" width="427" height="6"/><rect x="746" y="1445.62" width="427" height="5"/><rect x="746" y="1455.62" width="427" height="7"/><rect x="746" y="1467.62" width="427" height="6"/><rect x="746" y="1479.62" width="427" height="5"/><rect x="746" y="1489.62" width="427" height="7"/><rect x="746" y="1502.62" width="427" height="5"/><rect x="746" y="1513.62" width="293" height="5"/><rect x="746" y="1540.62" width="427" height="8"/><rect x="746" y="1553.62" width="427" height="5"/><rect x="746" y="1564.62" width="427" height="5"/><rect x="746" y="1575.62" width="427" height="7"/><rect x="746" y="1587.62" width="427" height="5"/><rect x="746" y="1599.62" width="427" height="5"/><rect x="746" y="1609.62" width="427" height="7"/><rect x="746" y="1621.62" width="293" height="6"/><polygon class="cls-13" points="1231 1830.62 674 1830.62 674 1135.62 1112.28 1135.62 1165.24 1189.16 1231 1255.51 1231 1830.62"/><polygon class="cls-43" points="1112 1255.62 1231.83 1255.62 1112 1135.97 1112 1255.62"/><polygon class="cls-44" points="1231 1255.62 1112.28 1255.62 1231 1375.05 1231 1255.62"/><rect class="cls-45" x="737" y="1253.62" width="216" height="25"/><rect class="cls-45" x="737" y="1304.62" width="427" height="5"/><rect class="cls-45" x="737" y="1314.62" width="427" height="6"/><rect class="cls-45" x="737" y="1326.62" width="427" height="5"/><rect class="cls-45" x="737" y="1338.62" width="427" height="5"/><rect class="cls-45" x="737" y="1349.62" width="427" height="6"/><rect class="cls-45" x="737" y="1360.62" width="427" height="5"/><rect class="cls-45" x="737" y="1372.62" width="427" height="6"/><rect class="cls-45" x="737" y="1383.62" width="293" height="6"/><rect class="cls-45" x="737" y="1417.62" width="427" height="6"/><rect class="cls-45" x="737" y="1429.62" width="427" height="5"/><rect class="cls-45" x="737" y="1439.62" width="427" height="7"/><rect class="cls-45" x="737" y="1451.62" width="427" height="6"/><rect class="cls-45" x="737" y="1463.62" width="427" height="5"/><rect class="cls-45" x="737" y="1473.62" width="427" height="7"/><rect class="cls-45" x="737" y="1486.62" width="427" height="5"/><rect class="cls-45" x="737" y="1497.62" width="293" height="5"/><rect class="cls-45" x="737" y="1524.62" width="427" height="8"/><rect class="cls-45" x="737" y="1537.62" width="427" height="5"/><rect class="cls-45" x="737" y="1548.62" width="427" height="5"/><rect class="cls-45" x="737" y="1559.62" width="427" height="7"/><rect class="cls-45" x="737" y="1571.62" width="427" height="5"/><rect class="cls-45" x="737" y="1583.62" width="427" height="5"/><rect class="cls-45" x="737" y="1593.62" width="427" height="7"/><rect class="cls-45" x="737" y="1605.62" width="293" height="6"/><path class="cls-46" d="M2622,2453v163H2458.67c3.16,90,74,157.62,161.17,157.62,89.18,0,160.35-71.24,160.35-160.42C2780.19,2525.51,2711,2455.36,2622,2453Z" transform="translate(-1157 -1317.38)"/><path class="cls-42" d="M2602,2432.26a31.42,31.42,0,0,0-3.65-.22c-89.18,0-161.1,71.06-161.1,160.24a19.32,19.32,0,0,0,.68,4.72H2602Z" transform="translate(-1157 -1317.38)"/><path d="M2305.33,2106.71v80.81h78.31v-80.81h47.42V2317h-47.42v-88h-78.31v88h-47.74V2106.71Z" transform="translate(-1157 -1317.38)"/><path d="M2472.56,2109.52c15.29-2.49,38.06-4.37,63.33-4.37,31.2,0,53,4.68,68,16.54,12.48,10,19.34,24.65,19.34,44,0,26.83-19,45.24-37.12,51.79v.94c14.66,5.93,22.77,20,28.08,39.31,6.55,23.71,13.1,51.17,17.16,59.28h-48.68c-3.43-5.93-8.42-23.09-14.66-49-5.62-26.21-14.66-33.39-34-33.7h-14.35V2317h-47.11Zm47.11,90.48h18.72c23.71,0,37.75-11.85,37.75-30.26,0-19.35-13.1-29-34.94-29.33-11.55,0-18.1.94-21.53,1.56Z" transform="translate(-1157 -1317.38)"/></svg>