<svg id="Artwork" xmlns="http://www.w3.org/2000/svg" width="64" height="64" viewBox="0 0 64 64">
  <title>co-icon-product-organisation_and_culture-pos</title>
  <g>
    <path d="M53.35,25.38A21.35,21.35,0,1,1,32,4,21.34,21.34,0,0,1,53.35,25.38Z" fill="#c8ebeb"/>
    <path d="M46.79,23a7.94,7.94,0,0,0-14.79-4,7.94,7.94,0,0,0-14.79,4C17.21,32.33,32,41.37,32,41.37S46.79,32.33,46.79,23Z" fill="#005f78"/>
    <g>
      <rect x="32.59" y="54.07" width="12.21" height="4.63" fill="#005f78"/>
      <path d="M43.56,41.49a2,2,0,0,0-3-1.58,2,2,0,0,0-2-1.61,2,2,0,0,0-1.38.55A2,2,0,0,0,35.56,38a2,2,0,0,0-1.62.82V31a1.86,1.86,0,0,0-3.66,0V46a11.08,11.08,0,0,0-3.8-.34c-2.29.2-3.84,1.29-3.89,2.58A3.49,3.49,0,0,0,22.82,50s3-.62,4.05-.29c2.87.93,5.46,4.33,6.93,4.33h9.77V41.61S43.56,41.53,43.56,41.49Z" fill="#00b4c8"/>
      <circle cx="42.96" cy="55.92" r="0.79" fill="#fff"/>
    </g>
  </g>
</svg>
