<svg id="Artwork" xmlns="http://www.w3.org/2000/svg" width="64" height="64" viewBox="0 0 64 64">
  <title>co-icon-product-compentence_and_learing-pos</title>
  <g>
    <g>
      <path d="M42.47,5.5a10,10,0,0,1-3.38,5.58l2.33,4.6,4.3-3.22A5.8,5.8,0,0,0,42.47,5.5Z" fill="#005f78"/>
      <path d="M22,5.5a5.8,5.8,0,0,0-3.25,7l4.31,3.22,2.33-4.6A10,10,0,0,1,22,5.5Z" fill="#005f78"/>
    </g>
    <path d="M47.81,31c0,15.68-7,17.74-15.57,17.74S16.67,46.68,16.67,31s7-21.68,15.57-21.68S47.81,15.32,47.81,31Z" fill="#005f78"/>
    <path d="M40.48,21.23S47.53,40,34.31,47.83H29.92C16.7,40,23.74,21.23,23.74,21.23Z" fill="#00b4c8"/>
    <path d="M28.14,21.91l4.1,6.56,4.1-6.56A6,6,0,0,0,28.14,21.91Z" fill="#005f78"/>
    <path d="M30.19,18.08A7.13,7.13,0,1,1,23.07,11,7.13,7.13,0,0,1,30.19,18.08Z" fill="#c8ebeb"/>
    <path d="M48.54,18.08A7.13,7.13,0,1,1,41.42,11,7.13,7.13,0,0,1,48.54,18.08Z" fill="#c8ebeb"/>
    <path d="M25.53,18.08a2.46,2.46,0,1,1-2.46-2.45A2.46,2.46,0,0,1,25.53,18.08Z" fill="#005f78"/>
    <circle cx="41.42" cy="18.08" r="2.46" fill="#005f78"/>
    <g>
      <path d="M32.24,30.13a.82.82,0,1,0,.82.82A.82.82,0,0,0,32.24,30.13Z" fill="#005f78"/>
      <path d="M27.32,30.13a.82.82,0,1,0,.82.82A.82.82,0,0,0,27.32,30.13Z" fill="#005f78"/>
      <path d="M37.16,30.13A.82.82,0,1,0,38,31,.82.82,0,0,0,37.16,30.13Z" fill="#005f78"/>
      <path d="M34.7,34.23a.82.82,0,1,0,.82.82A.82.82,0,0,0,34.7,34.23Z" fill="#005f78"/>
      <path d="M39.62,34.23a.82.82,0,1,0,0,1.64.82.82,0,1,0,0-1.64Z" fill="#005f78"/>
      <path d="M29.78,34.23a.82.82,0,1,0,.82.82A.82.82,0,0,0,29.78,34.23Z" fill="#005f78"/>
      <path d="M24.87,34.23a.82.82,0,1,0,.81.82A.81.81,0,0,0,24.87,34.23Z" fill="#005f78"/>
      <path d="M32.24,38.33a.82.82,0,1,0,.82.82A.82.82,0,0,0,32.24,38.33Z" fill="#005f78"/>
      <path d="M27.32,38.33a.82.82,0,1,0,0,1.63.82.82,0,1,0,0-1.63Z" fill="#005f78"/>
      <path d="M37.16,38.33a.82.82,0,1,0,.82.82A.82.82,0,0,0,37.16,38.33Z" fill="#005f78"/>
      <path d="M34.7,42.42a.82.82,0,1,0,.82.82A.82.82,0,0,0,34.7,42.42Z" fill="#005f78"/>
      <path d="M29.78,42.42a.82.82,0,0,0,0,1.64.82.82,0,0,0,0-1.64Z" fill="#005f78"/>
    </g>
    <path d="M53.31,47.83H13.16c-.1,0-.19,0-.28,0a13,13,0,0,1,0,9.78,2.4,2.4,0,0,0,.28,0H53.31A7,7,0,0,1,53.31,47.83Z" fill="#c8ebeb"/>
    <path d="M55,58.5H13.16a4.11,4.11,0,0,1-4.11-4.11V51.11A4.11,4.11,0,0,1,13.16,47H55v1.65H13.16a2.45,2.45,0,0,0-2.45,2.45v3.28a2.45,2.45,0,0,0,2.45,2.45H55Z" fill="#005f78"/>
  </g>
</svg>
