<svg id="Artwork" xmlns="http://www.w3.org/2000/svg" width="64" height="64" viewBox="0 0 64 64">
  <title>co-icon-product-core_hr-pos</title>
  <g>
    <rect x="10" y="8" width="44" height="14" fill="#005f78"/>
    <rect x="10" y="25" width="44" height="14" fill="#005f78"/>
    <rect x="10" y="42" width="44" height="14" fill="#005f78"/>
    <g>
      <path d="M32,45.78l-7.7-5a6.36,6.36,0,0,1-2.94-5.36c0-4.8,0-12.91,0-13.53a42.76,42.76,0,0,0,5.31-1.31A27.18,27.18,0,0,0,32,18.22a27.18,27.18,0,0,0,5.35,2.4,42.76,42.76,0,0,0,5.31,1.31c0,.62,0,8.73,0,13.53a6.36,6.36,0,0,1-2.94,5.36Z" fill="#00b4c8" style="isolation: isolate"/>
      <g>
        <path d="M33.29,29.6l1.13.57,2.9,1.45a.8.8,0,0,1,.42.77v3.45a.91.91,0,0,1-.19.59.55.55,0,0,1-.46.25H26.91a.55.55,0,0,1-.46-.25.91.91,0,0,1-.19-.59V32.39a.8.8,0,0,1,.42-.77l2.9-1.45,1.13-.57Z" fill="#fff"/>
        <path d="M29.45,26.24a2.55,2.55,0,1,1,5.1,0v1.05c0,.88-.91,1.87-1.24,2.33a1.68,1.68,0,0,1-2.62,0c-.33-.46-1.24-1.45-1.24-2.33Z" fill="#fff"/>
      </g>
    </g>
  </g>
</svg>
