<svg id="Artwork" xmlns="http://www.w3.org/2000/svg" width="64" height="64" viewBox="0 0 64 64">
  <title>co-icon-product-continuous_performance-pos</title>
  <g>
    <g>
      <rect x="9.64" y="47.39" width="2.08" height="7.77" fill="#00b4c8"/>
      <rect x="15.48" y="42.39" width="2.08" height="12.76" fill="#00b4c8"/>
      <rect x="21.31" y="43.72" width="2.08" height="11.43" fill="#00b4c8"/>
      <rect x="27.15" y="40.06" width="2.08" height="15.1" fill="#00b4c8"/>
      <rect x="32.99" y="35.73" width="2.08" height="19.42" fill="#00b4c8"/>
      <rect x="38.83" y="37.39" width="2.08" height="17.76" fill="#00b4c8"/>
      <rect x="44.66" y="32.4" width="2.08" height="22.75" fill="#00b4c8"/>
      <rect x="50.5" y="28.9" width="2.08" height="26.25" fill="#00b4c8"/>
    </g>
    <polygon points="54.36 16.74 46.61 18.01 48.27 20.04 49.93 22.07 51.59 24.09 54.36 16.74" fill="#005f78"/>
    <g>
      <rect x="28.16" y="11.85" width="5.87" height="1.66" fill="#005f78"/>
      <rect x="10.68" y="11.85" width="13.36" height="1.66" fill="#005f78"/>
      <rect x="24" y="16.61" width="10.03" height="1.66" fill="#005f78"/>
      <rect x="10.68" y="16.61" width="9.2" height="1.66" fill="#005f78"/>
      <rect x="18.57" y="21.38" width="7.96" height="1.66" fill="#005f78"/>
      <rect x="10.68" y="21.38" width="3.78" height="1.66" fill="#005f78"/>
    </g>
    <path d="M10.68,41.56a1.5,1.5,0,0,1-1-2.58l5.84-5.62A1.5,1.5,0,0,1,16.83,33l5.43,1.17,5.07-3.35,5.79-4.38a1.5,1.5,0,0,1,1.54-.17l4.68,2.16,4.85-4.61,5.55-5.37a1.5,1.5,0,1,1,2.09,2.15L46.26,26l-5.59,5.32a1.49,1.49,0,0,1-1.66.27l-4.79-2.21-5.16,3.9L23.38,37a1.48,1.48,0,0,1-1.14.22L17,36.08l-5.26,5.06A1.5,1.5,0,0,1,10.68,41.56Z" fill="#005f78"/>
  </g>
</svg>
