<svg id="Artwork" xmlns="http://www.w3.org/2000/svg" width="64" height="64" viewBox="0 0 64 64">
  <title>co-icon-product-recruitment-pos</title>
  <g>
    <path d="M33.5,21c-2-2-4.43-2-6-.46a1.79,1.79,0,0,1-2.5.35c-.95-.95-2.07-2.1-2.07-2.1L11.16,30.5,16,35.34,13.34,38a3,3,0,0,0,4.24,4.25l-1,1a3,3,0,0,0,4.24,4.24l1.05-1a3,3,0,0,0,4.25,4.23l.83-.83a3,3,0,0,0,4.25,4.23l.93-.93.93.93a3,3,0,0,0,4.41-4v0l.67.67a3,3,0,0,0,4.24-4.24l1.06,1.06a3,3,0,0,0,4.24-4.25L45,40.7h0l1.55,1.54A3,3,0,0,0,50.83,38l-1-1,4.67-4.67L41.16,19H38A6.76,6.76,0,0,0,33.5,21Z" fill="#c8ebeb"/>
    <path d="M41.16,19H37.9c-2.06,0-3.45.89-5.9,3.34L27.84,26.5a3,3,0,0,0,4.24,4.24l2.67-2.66c2.16-2.16,4.18-2,6-.15L49.83,37l4.67-4.67ZM19.7,40.12a3,3,0,1,0-4.11-4.37l-.13.13L13.34,38a3,3,0,0,0,4.24,4.24Z" fill="#00b4c8" style="isolation: isolate"/>
    <path d="M23.94,44.36a3,3,0,1,0-4.24-4.24h0L16.52,43.3a3,3,0,0,0,4.24,4.24Zm4.24,4.25a3,3,0,0,0-4.24-4.25l-2.12,2.12a3,3,0,0,0,4.24,4.25Z" fill="#00b4c8" style="isolation: isolate"/>
    <path d="M32.19,53.08A3,3,0,1,0,28,48.84h0l-1,1a3,3,0,0,0,4.24,4.24Z" fill="#00b4c8" style="isolation: isolate"/>
    <g>
      <rect x="44.99" y="8.9" width="12.35" height="23.97" transform="translate(0.21 42.29) rotate(-45)" fill="#005f78"/>
      <polygon points="55.27 33.73 64 25 57.22 18.22 43.97 22.43 55.27 33.73" fill="#005f78"/>
      <circle cx="56.12" cy="27.8" r="1.7" fill="#fff"/>
      <path d="M56.81,26.25A1.66,1.66,0,0,1,57,27a1.69,1.69,0,0,1-1.69,1.7,1.74,1.74,0,0,1-.69-.15,1.69,1.69,0,0,0,3.23-.7A1.7,1.7,0,0,0,56.81,26.25Z" fill="#fff"/>
    </g>
    <g>
      <rect x="0.85" y="14.72" width="23.97" height="12.35" transform="translate(-11.01 15.2) rotate(-45)" fill="#005f78"/>
      <polygon points="8.73 33.73 0 25 6.78 18.22 20.03 22.43 8.73 33.73" fill="#005f78"/>
      <circle cx="7.88" cy="27.8" r="1.7" fill="#fff"/>
      <path d="M7.19,26.25A1.66,1.66,0,0,0,7,27a1.69,1.69,0,0,0,1.69,1.7,1.74,1.74,0,0,0,.69-.15,1.69,1.69,0,0,1-3.23-.7A1.7,1.7,0,0,1,7.19,26.25Z" fill="#fff"/>
    </g>
  </g>
</svg>
