<svg id="Artwork" xmlns="http://www.w3.org/2000/svg" width="64" height="64" viewBox="0 0 64 64">
  <title>co-icon-product-talent_and_succession-white</title>
  <g>
    <g>
      <path d="M52.7,28l2.37,1.19,6,3A1.69,1.69,0,0,1,62,33.8V41a2,2,0,0,1-.39,1.24,1.21,1.21,0,0,1-1,.52H39.36a1.21,1.21,0,0,1-1-.52A2,2,0,0,1,38,41V33.8a1.69,1.69,0,0,1,.88-1.62l6-3L47.3,28Z" fill="#00b4c8"/>
      <path d="M44.67,20.93a5.33,5.33,0,1,1,10.66,0v2.19c0,1.86-1.9,3.91-2.6,4.88a3.5,3.5,0,0,1-5.46,0c-.7-1-2.6-3-2.6-4.88Z" fill="#00b4c8"/>
    </g>
    <g>
      <path d="M16.7,28l2.37,1.19,6.05,3A1.69,1.69,0,0,1,26,33.8V41a2,2,0,0,1-.39,1.24,1.21,1.21,0,0,1-1,.52H3.36a1.21,1.21,0,0,1-1-.52A2,2,0,0,1,2,41V33.8a1.69,1.69,0,0,1,.88-1.62l6.05-3L11.3,28Z" fill="#00b4c8"/>
      <path d="M8.67,20.93a5.33,5.33,0,1,1,10.66,0v2.19c0,1.86-1.9,3.91-2.6,4.88A3.3,3.3,0,0,1,14,29.31,3.3,3.3,0,0,1,11.27,28c-.7-1-2.6-3-2.6-4.88Z" fill="#00b4c8"/>
    </g>
    <g>
      <path d="M36.05,27.16l3.55,1.78,9.08,4.55A2.52,2.52,0,0,1,50,35.91V46.72a3,3,0,0,1-.59,1.85,1.78,1.78,0,0,1-1.45.78H16a1.78,1.78,0,0,1-1.45-.78A3,3,0,0,1,14,46.72V35.91a2.52,2.52,0,0,1,1.32-2.42l9.08-4.55L28,27.16Z" fill="#005f78"/>
      <path d="M24,16.6a8,8,0,0,1,16,0v3.3c0,2.78-2.86,5.86-3.91,7.31a5.25,5.25,0,0,1-8.18,0C26.86,25.76,24,22.68,24,19.9Z" fill="#005f78"/>
    </g>
    <g>
      <circle cx="32" cy="51" r="9" fill="#00b4c8"/>
      <polygon points="32 44.57 33.84 48.31 37.97 48.91 34.98 51.82 35.69 55.93 32 53.99 28.31 55.93 29.02 51.82 26.03 48.91 30.16 48.31 32 44.57" fill="#fff"/>
    </g>
  </g>
</svg>
