<?xml version="1.0" encoding="UTF-8"?>
<svg width="199px" height="24px" viewBox="0 0 199 24" version="1.1" xmlns="http://www.w3.org/2000/svg" xmlns:xlink="http://www.w3.org/1999/xlink">
    <!-- Generator: Sketch 51.2 (57519) - http://www.bohemiancoding.com/sketch -->
    <title>co logo flat</title>
    <desc>Created with Sketch.</desc>
    <defs></defs>
    <g id="Symbols" stroke="none" stroke-width="1" fill="none" fill-rule="evenodd">
        <g id="footer" transform="translate(-1100.000000, -91.000000)" fill="#FFFFFF">
            <g id="footer-2">
                <g id="Group-22" transform="translate(1100.000000, 91.000000)">
                    <g id="co-logo-flat">
                        <path d="M198.211366,7.37329655 C198.426538,7.37329655 198.582124,7.19784828 198.582124,7.00253793 L198.582124,5.25798621 C198.582124,5.06350345 198.426538,4.88722759 198.211366,4.88722759 L189.1104,4.88722759 C188.896055,4.88722759 188.739641,5.06350345 188.739641,5.25798621 L188.739641,18.2006069 C188.739641,18.3959172 188.896055,18.5713655 189.1104,18.5713655 L198.211366,18.5713655 C198.426538,18.5713655 198.582124,18.3959172 198.582124,18.2006069 L198.582124,16.4577103 C198.582124,16.2615724 198.426538,16.0852966 198.211366,16.0852966 L191.421021,16.0852966 L191.421021,12.8742621 L197.253021,12.8742621 C197.448331,12.8742621 197.624607,12.7186759 197.624607,12.5035034 L197.624607,10.7407448 C197.624607,10.5454345 197.448331,10.3691586 197.253021,10.3691586 L191.421021,10.3691586 L191.421021,7.37329655 L198.211366,7.37329655 Z M183.314814,4.88722759 L181.376607,4.88722759 C181.160607,4.88722759 181.004193,5.06350345 181.004193,5.25798621 L181.004193,12.9115034 L180.966124,12.9115034 L173.12971,4.82846897 C173.032055,4.73164138 172.9344,4.69191724 172.797848,4.69191724 L172.504055,4.69191724 C172.308745,4.69191724 172.132469,4.84833103 172.132469,5.04364138 L172.132469,18.2006069 C172.132469,18.3959172 172.308745,18.5713655 172.504055,18.5713655 L174.423228,18.5713655 C174.6384,18.5713655 174.794814,18.3959172 174.794814,18.2006069 L174.794814,10.2152276 L174.83371,10.2152276 L182.709848,18.6309517 C182.806676,18.7286069 182.904331,18.7675034 183.04171,18.7675034 L183.314814,18.7675034 C183.510124,18.7675034 183.6864,18.6110897 183.6864,18.4157793 L183.6864,5.25798621 C183.6864,5.06350345 183.510124,4.88722759 183.314814,4.88722759 Z M165.255228,11.7487448 C165.255228,9.34377931 163.270676,7.33936552 160.86571,7.33936552 C158.459917,7.33936552 156.493572,9.34377931 156.493572,11.7487448 C156.493572,14.1537103 158.459917,16.1200552 160.86571,16.1200552 C163.270676,16.1200552 165.255228,14.1537103 165.255228,11.7487448 Z M167.902676,11.7495724 C167.902676,15.6590897 164.775228,18.7675034 160.864883,18.7675034 C156.954538,18.7675034 153.846952,15.6590897 153.846952,11.7495724 C153.846952,7.8384 156.954538,4.69191724 160.864883,4.69191724 C164.775228,4.69191724 167.902676,7.8384 167.902676,11.7495724 Z M150.798952,4.88722759 L142.509848,4.88722759 C142.295503,4.88722759 142.13909,5.06350345 142.13909,5.25798621 L142.13909,5.82571034 C142.13909,6.02102069 142.295503,6.19729655 142.509848,6.19729655 L145.912055,6.19729655 L145.912055,18.2006069 C145.912055,18.3959172 146.087503,18.5713655 146.282814,18.5713655 L147.025986,18.5713655 C147.221297,18.5713655 147.397572,18.3959172 147.397572,18.2006069 L147.397572,6.19729655 L150.798952,6.19729655 C151.014124,6.19729655 151.170538,6.02102069 151.170538,5.82571034 L151.170538,5.25798621 C151.170538,5.06350345 151.014124,4.88722759 150.798952,4.88722759 Z M134.793434,10.8309517 C133.151503,10.1465379 132.154262,9.53991724 132.154262,8.15205517 C132.154262,7.33108966 132.779917,6.00198621 134.851366,6.00198621 C135.94709,6.00198621 136.630676,6.29495172 137.452469,6.78405517 C137.765297,6.95950345 137.979641,6.95950345 138.136055,6.6864 L138.332193,6.35371034 C138.546538,5.98212414 138.332193,5.74791724 138.214676,5.68915862 C138.214676,5.68915862 136.78709,4.69191724 134.871228,4.69191724 C131.762814,4.69191724 130.707641,6.84198621 130.707641,8.17191724 C130.707641,10.3997793 131.997848,11.2207448 134.147917,12.1401931 C136.396469,13.0985379 137.569986,13.8797793 137.569986,15.2287448 C137.569986,16.4601931 136.533848,17.4582621 134.949848,17.4582621 C133.210262,17.4582621 131.723917,16.1481931 131.587366,16.0306759 C131.314262,15.796469 131.157848,15.8941241 130.96171,16.1481931 L130.668745,16.5189517 C130.394814,16.8715034 130.629021,17.0469517 130.785434,17.1835034 C131.039503,17.4185379 132.604469,18.7675034 134.910952,18.7675034 C137.197572,18.7675034 139.133297,17.2033655 139.133297,15.1699862 C139.133297,12.9024 137.433434,11.9059862 134.793434,10.8309517 Z M116.00971,17.2621241 L110.379641,17.2621241 L110.379641,5.25798621 C110.379641,5.06350345 110.204193,4.88722759 110.008055,4.88722759 L109.245848,4.88722759 C109.030676,4.88722759 108.874262,5.06350345 108.874262,5.25798621 L108.874262,18.2006069 C108.874262,18.3959172 109.030676,18.5713655 109.245848,18.5713655 L116.00971,18.5713655 C116.224883,18.5713655 116.381297,18.3959172 116.381297,18.2006069 L116.381297,17.6328828 C116.381297,17.4375724 116.224883,17.2621241 116.00971,17.2621241 Z M90.9429517,4.88722759 L82.6538483,4.88722759 C82.4395034,4.88722759 82.2830897,5.06350345 82.2830897,5.25798621 L82.2830897,5.82571034 C82.2830897,6.02102069 82.4395034,6.19729655 82.6538483,6.19729655 L86.0560552,6.19729655 L86.0560552,18.2006069 C86.0560552,18.3959172 86.2315034,18.5713655 86.4268138,18.5713655 L87.1699862,18.5713655 C87.3661241,18.5713655 87.5415724,18.3959172 87.5415724,18.2006069 L87.5415724,6.19729655 L90.9429517,6.19729655 C91.1581241,6.19729655 91.3145379,6.02102069 91.3145379,5.82571034 L91.3145379,5.25798621 C91.3145379,5.06350345 91.1581241,4.88722759 90.9429517,4.88722759 Z M60.6201931,6.09964138 C62.0469517,6.09964138 63.3371586,6.6864 64.3542621,7.56529655 C64.5495724,7.76143448 64.7059862,7.78046897 64.8624,7.58515862 L65.3904,7.05715862 C65.5468138,6.90157241 65.5269517,6.66653793 65.3705379,6.50929655 C64.0414345,5.37550345 62.6146759,4.69191724 60.6400552,4.69191724 C56.7297103,4.69191724 53.5824,7.8384 53.5824,11.7495724 C53.5824,15.6590897 56.7297103,18.7675034 60.6400552,18.7675034 C62.3796414,18.7675034 64.0025379,18.0450207 65.2927448,16.8715034 C65.4292966,16.7349517 65.4681931,16.4601931 65.3126069,16.3435034 L64.8624,15.8941241 C64.7059862,15.7368828 64.5495724,15.7178483 64.3542621,15.8734345 C63.3172966,16.7539862 62.3208828,17.3407448 60.6201931,17.3407448 C57.5316414,17.3407448 55.1655724,14.7396414 55.1655724,11.7305379 C55.1655724,8.69991724 57.5316414,6.09964138 60.6201931,6.09964138 Z M101.953159,14.4739862 C100.7904,11.8596414 99.3777103,8.68171034 98.8488828,7.50653793 L98.692469,7.50653793 L95.592331,14.4739862 L101.953159,14.4739862 Z M105.125297,18.0640552 C105.241986,18.3181241 105.085572,18.5713655 104.792607,18.5713655 L104.010538,18.5713655 C103.834262,18.5713655 103.716745,18.4546759 103.677848,18.3570207 C103.677848,18.3570207 103.177159,17.2281931 102.491917,15.6864 L95.0527448,15.6864 L93.864331,18.3570207 C93.8246069,18.4546759 93.7079172,18.5713655 93.5316414,18.5713655 L92.7504,18.5713655 C92.4566069,18.5713655 92.3001931,18.3181241 92.4177103,18.0640552 L98.3606069,4.90708966 C98.4193655,4.78957241 98.5170207,4.69191724 98.692469,4.69191724 L98.8886069,4.69191724 C99.0648828,4.69191724 99.1617103,4.78957241 99.220469,4.90708966 L105.125297,18.0640552 Z M77.9887448,14.4739862 C76.8268138,11.8596414 75.4132966,8.68171034 74.884469,7.50653793 L74.7288828,7.50653793 L71.6279172,14.4739862 L77.9887448,14.4739862 Z M81.1608828,18.0640552 C81.2784,18.3181241 81.1211586,18.5713655 80.8281931,18.5713655 L80.0461241,18.5713655 C79.8698483,18.5713655 79.752331,18.4546759 79.7134345,18.3570207 C79.7134345,18.3570207 79.2127448,17.2281931 78.5275034,15.6864 L71.0891586,15.6864 L69.9007448,18.3570207 C69.8610207,18.4546759 69.7435034,18.5713655 69.5672276,18.5713655 L68.7859862,18.5713655 C68.4921931,18.5713655 68.3357793,18.3181241 68.4532966,18.0640552 L74.3961931,4.90708966 C74.4549517,4.78957241 74.5526069,4.69191724 74.7288828,4.69191724 L74.9241931,4.69191724 C75.100469,4.69191724 75.1981241,4.78957241 75.2568828,4.90708966 L81.1608828,18.0640552 Z M127.853297,5.45495172 L123.08309,11.9647448 L123.08309,18.2006069 C123.08309,18.3959172 122.907641,18.5713655 122.711503,18.5713655 L121.949297,18.5713655 C121.734124,18.5713655 121.57771,18.3959172 121.57771,18.2006069 L121.57771,11.9837793 L116.866262,5.45495172 C116.710676,5.20005517 116.866262,4.88722759 117.17909,4.88722759 L118.098538,4.88722759 C118.23509,4.88722759 118.351779,4.98488276 118.410538,5.06350345 L122.359779,10.5181241 L126.309021,5.06350345 C126.366952,4.98488276 126.485297,4.88722759 126.621848,4.88722759 L127.540469,4.88722759 C127.853297,4.88722759 128.00971,5.20005517 127.853297,5.45495172 Z" id="Fill-1"></path>
                        <path d="M23.4666207,12.0486621 C23.4616552,11.9435586 23.4591724,11.8368 23.4591724,11.7292138 C23.4591724,11.6224552 23.4616552,11.5173517 23.4666207,11.4105931 C23.6346207,8.13004138 26.3457931,5.51983448 29.6685517,5.51983448 C30.204,5.51983448 30.7245517,5.58852414 31.2186207,5.71514483 C31.3187586,5.74162759 31.4155862,5.76893793 31.5132414,5.80038621 C34.0423448,6.5865931 35.877931,8.94273103 35.877931,11.7292138 C35.877931,15.1595586 33.098069,17.9385931 29.6685517,17.9385931 C26.3457931,17.9385931 23.6346207,15.3300414 23.4666207,12.0486621 M41.3954483,11.5885241 C41.3954483,11.5421793 41.3954483,11.4958345 41.3929655,11.4494897 L41.3929655,11.4279724 C41.3904828,11.3750069 41.3904828,11.3203862 41.3855172,11.2674207 C41.1446897,5.00424828 35.9921379,-0.000165517241 29.6685517,-0.000165517241 C26.0710345,-0.000165517241 22.8484138,1.62107586 20.6991724,4.17417931 C20.5526897,4.34466207 20.4144828,4.52011034 20.2804138,4.69721379 C18.8106207,6.65693793 17.9383448,9.09086897 17.9383448,11.7292138 C17.9383448,11.8368 17.9358621,11.9435586 17.9317241,12.0486621 C17.7637241,15.3300414 15.0525517,17.9385931 11.7297931,17.9385931 C11.1943448,17.9385931 10.6737931,17.870731 10.1788966,17.7441103 C10.0795862,17.7176276 9.98193103,17.6903172 9.88427586,17.658869 C7.18717241,16.8205241 5.27875862,14.1962483 5.54524138,11.1681103 C5.80344828,8.22604138 8.16372414,5.83928276 11.1033103,5.55045517 C12.0691034,5.45611034 12.9943448,5.58355862 13.8343448,5.88728276 C15.0566897,6.32838621 16.4031724,5.7590069 17.0404138,4.62686897 C17.0511724,4.60866207 17.061931,4.5888 17.0726897,4.5705931 C17.8994483,3.11652414 17.2688276,1.25445517 15.693931,0.690868966 C15.5226207,0.629627586 15.3488276,0.572524138 15.1733793,0.517903448 C15.084,0.488937931 14.9937931,0.462455172 14.9011034,0.435972414 C14.7554483,0.392110345 14.6064828,0.355696552 14.4558621,0.320937931 C13.581931,0.109075862 12.6691034,-0.000165517241 11.7297931,-0.000165517241 C5.35489655,-0.000165517241 0.165931034,5.08948966 0.00455172414,11.4279724 C0.00206896552,11.4354207 0.00206896552,11.442869 0.00455172414,11.4494897 C0.000413793104,11.5421793 0.000413793104,11.634869 0.000413793104,11.7292138 C0.000413793104,11.8243862 0.000413793104,11.9170759 0.00455172414,12.0097655 C0.00206896552,12.0172138 0.00206896552,12.0246621 0.00455172414,12.0312828 C0.00703448276,12.1065931 0.00951724138,12.1819034 0.0144827586,12.2555586 C0.287586207,18.4914207 5.4302069,23.4594207 11.7297931,23.4594207 C15.3273103,23.4594207 18.549931,21.8381793 20.6991724,19.2875586 C22.1474483,21.0056276 24.0798621,22.3008 26.2878621,22.962869 C26.3582069,22.9843862 26.4285517,23.0059034 26.4997241,23.0257655 C26.58,23.0481103 26.6569655,23.0696276 26.738069,23.0894897 C26.805931,23.1085241 26.8762759,23.1259034 26.9474483,23.1399724 C27.0277241,23.1598345 27.1104828,23.178869 27.1907586,23.1937655 C27.9885517,23.3692138 28.8186207,23.4594207 29.6685517,23.4594207 C35.9921379,23.4594207 41.1446897,18.4574897 41.3855172,12.1918345 C41.3904828,12.1380414 41.3904828,12.0850759 41.3929655,12.0312828 L41.3929655,12.0097655 C41.3954483,11.9625931 41.3954483,11.9170759 41.3954483,11.870731 C41.397931,11.8243862 41.397931,11.7755586 41.397931,11.7292138 C41.397931,11.6836966 41.397931,11.634869 41.3954483,11.5885241" id="Fill-3"></path>
                    </g>
                </g>
            </g>
        </g>
    </g>
</svg>