<?xml version="1.0" encoding="UTF-8"?>
<svg width="41px" height="40px" viewBox="0 0 41 40" version="1.1" xmlns="http://www.w3.org/2000/svg" xmlns:xlink="http://www.w3.org/1999/xlink">
    <!-- Generator: Sketch 51.2 (57519) - http://www.bohemiancoding.com/sketch -->
    <title>5b20a6d16874e20ae374b136_Facebook Icon</title>
    <desc>Created with Sketch.</desc>
    <defs></defs>
    <g id="Symbols" stroke="none" stroke-width="1" fill="none" fill-rule="evenodd">
        <g id="footer" transform="translate(-1206.000000, -541.000000)" fill="#FFFFFF" fill-rule="nonzero">
            <g id="footer-2">
                <g id="Group-22" transform="translate(1100.000000, 91.000000)">
                    <g id="Connect" transform="translate(0.000000, 411.000000)">
                        <g id="5b20a6d16874e20ae374b136_Facebook-Icon" transform="translate(106.666667, 39.000000)">
                            <path d="M20,0 C8.954305,-6.76353751e-16 1.3527075e-15,8.954305 0,20 C-1.3527075e-15,31.045695 8.954305,40 20,40 C31.045695,40 40,31.045695 40,20 C40,14.6956702 37.8928632,9.60859195 34.1421356,5.85786438 C30.3914081,2.10713681 25.3043298,3.24796525e-16 20,0 Z M25.34,13.53 C25.34,13.6360866 25.2978573,13.7378282 25.2228427,13.8128427 C25.1478282,13.8878573 25.0460866,13.93 24.94,13.93 L23.2,13.93 C22.01,13.93 21.79,14.4 21.79,15.31 L21.79,17.21 L24.79,17.21 C24.8964924,17.2065942 24.9990232,17.250536 25.07,17.33 C25.1463048,17.4032057 25.189613,17.5042581 25.19,17.61 L25.19,20.86 C25.1926961,20.9678085 25.1517466,21.0721381 25.0764378,21.1493296 C25.001129,21.226521 24.8978422,21.2700337 24.79,21.27 L21.79,21.27 L21.79,29.47 C21.79,29.6909139 21.6109139,29.87 21.39,29.87 L18,29.87 C17.8921915,29.8726961 17.7878619,29.8317466 17.7106704,29.7564378 C17.633479,29.681129 17.5899663,29.5778422 17.59,29.47 L17.59,21.27 L15.05,21.27 C14.8235633,21.27 14.64,21.0864367 14.64,20.86 L14.64,17.61 C14.6399663,17.5021578 14.683479,17.398871 14.7606704,17.3235622 C14.8378619,17.2482534 14.9421915,17.2073039 15.05,17.21 L17.62,17.21 L17.62,15 C17.5137928,13.6999272 17.9756683,12.417546 18.8864448,11.4837604 C19.7972213,10.5499748 21.0676824,10.0562551 22.37,10.13 L24.93,10.13 C25.0360866,10.13 25.1378282,10.1721427 25.2128427,10.2471573 C25.2878573,10.3221718 25.33,10.4239134 25.33,10.53 L25.34,13.53 Z" id="Shape"></path>
                        </g>
                    </g>
                </g>
            </g>
        </g>
    </g>
</svg>