<svg id="Warstwa_1" data-name="Warstwa 1" xmlns="http://www.w3.org/2000/svg" viewBox="0 0 239.45 217.95"><defs><style>.cls-1,.cls-2{fill:none;stroke:#fff;}.cls-1{stroke-width:1.6px;}.cls-2{stroke-width:2.77px;}.cls-3,.cls-4,.cls-5,.cls-6{fill:#fff;}.cls-4{font-size:28.48px;font-family:Verdana, Verdana;}.cls-5{font-size:36px;font-family:Verdana-Bold, Verdana;font-weight:700;}.cls-6{fill-rule:evenodd;}</style></defs><title>Obszar roboczy 1</title><polyline class="cls-1" points="204.75 21.9 238.65 21.67 238.65 202.97 194.21 202.85"/><polyline class="cls-2" points="58.38 202.97 1.38 202.97 1.38 21.67 33.06 21.67"/><path class="cls-3" d="M49,47.21a2,2,0,0,0-.45-1.4,1.73,1.73,0,0,0-1.35-.5,2,2,0,0,0-1.45.54,2.13,2.13,0,0,0-.61,1.35Zm1.12.88h-5a2.92,2.92,0,0,0,.19,1.09,2.06,2.06,0,0,0,.52.76,2,2,0,0,0,.75.44,2.94,2.94,0,0,0,1,.15,3.74,3.74,0,0,0,1.39-.28,3.44,3.44,0,0,0,1-.55H50V51a9,9,0,0,1-1.18.41,4.78,4.78,0,0,1-1.27.17,3.63,3.63,0,0,1-2.64-.92,3.44,3.44,0,0,1-1-2.6,3.73,3.73,0,0,1,.91-2.65,3.12,3.12,0,0,1,2.4-1,2.76,2.76,0,0,1,2.12.8,3.22,3.22,0,0,1,.75,2.28Z"/><path class="cls-3" d="M61.76,51.38H60.61V47.5c0-.29,0-.57,0-.85A1.8,1.8,0,0,0,60.4,46a.92.92,0,0,0-.4-.4,1.69,1.69,0,0,0-.75-.13,2.13,2.13,0,0,0-1,.24,5.93,5.93,0,0,0-1,.61c0,.09,0,.2,0,.32s0,.25,0,.37v4.35H56.22V47.5c0-.3,0-.58,0-.85A1.82,1.82,0,0,0,56,46a.91.91,0,0,0-.4-.39,1.76,1.76,0,0,0-.75-.13,2.11,2.11,0,0,0-.94.23,5.72,5.72,0,0,0-.94.59v5.08H51.84V44.58H53v.75a5,5,0,0,1,1.07-.69,2.61,2.61,0,0,1,1.13-.25,2.23,2.23,0,0,1,1.18.29,1.79,1.79,0,0,1,.72.81,5.69,5.69,0,0,1,1.27-.84,2.94,2.94,0,0,1,1.22-.26,2,2,0,0,1,1.65.68A3,3,0,0,1,61.76,47Z"/><path class="cls-3" d="M68.77,47.93a3.28,3.28,0,0,0-.42-1.85,1.46,1.46,0,0,0-1.29-.61,2.5,2.5,0,0,0-1,.21,4.48,4.48,0,0,0-1,.56v3.87a4.53,4.53,0,0,0,.84.3,3.61,3.61,0,0,0,.8.08,1.83,1.83,0,0,0,1.49-.65,3,3,0,0,0,.54-1.92m1.19,0a4.62,4.62,0,0,1-.24,1.51A3.32,3.32,0,0,1,69,50.59a2.82,2.82,0,0,1-.95.7,2.76,2.76,0,0,1-1.16.25,3.66,3.66,0,0,1-1-.12,4,4,0,0,1-.87-.36v2.83H64v-9.3h1.15v.71a4.45,4.45,0,0,1,1-.64,2.89,2.89,0,0,1,1.22-.26,2.25,2.25,0,0,1,1.92.93A4.28,4.28,0,0,1,70,47.91"/><path class="cls-3" d="M76.34,48a3.08,3.08,0,0,0-.51-2A1.92,1.92,0,0,0,73,46a3.93,3.93,0,0,0,0,3.88,1.88,1.88,0,0,0,2.85,0A3.07,3.07,0,0,0,76.34,48m1.19,0a3.82,3.82,0,0,1-.85,2.62,3.19,3.19,0,0,1-4.56,0,4.49,4.49,0,0,1,0-5.25,3.18,3.18,0,0,1,4.56,0A3.84,3.84,0,0,1,77.52,48"/><polygon class="cls-3" points="87.86 44.58 86.09 51.38 85.03 51.38 83.28 46.14 81.54 51.38 80.49 51.38 78.7 44.58 79.89 44.58 81.14 49.84 82.84 44.58 83.79 44.58 85.53 49.84 86.71 44.58 87.86 44.58"/><path class="cls-3" d="M94.1,47.21a2,2,0,0,0-.45-1.4,1.73,1.73,0,0,0-1.35-.5,2,2,0,0,0-1.45.54,2.13,2.13,0,0,0-.61,1.35Zm1.12.88h-5a2.92,2.92,0,0,0,.19,1.09,2,2,0,0,0,1.26,1.2,3,3,0,0,0,1,.15A3.75,3.75,0,0,0,94,50.26a3.46,3.46,0,0,0,1-.55h.06V51a9.06,9.06,0,0,1-1.18.41,4.76,4.76,0,0,1-1.26.17A3.64,3.64,0,0,1,90,50.61,3.44,3.44,0,0,1,89,48,3.73,3.73,0,0,1,90,45.37a3.12,3.12,0,0,1,2.4-1,2.75,2.75,0,0,1,2.12.8,3.21,3.21,0,0,1,.75,2.28Z"/><path class="cls-3" d="M101.19,45.84h-.06a4.27,4.27,0,0,0-.5-.09,5.43,5.43,0,0,0-.57,0A2.35,2.35,0,0,0,99,46a4.69,4.69,0,0,0-.95.6v4.82H96.94V44.58h1.15v1a5.55,5.55,0,0,1,1.2-.77,2.58,2.58,0,0,1,1.06-.23l.43,0,.4.06Z"/><path class="cls-3" d="M106.85,47.21a2,2,0,0,0-.45-1.4,1.73,1.73,0,0,0-1.35-.5,2,2,0,0,0-1.45.54,2.13,2.13,0,0,0-.61,1.35Zm1.12.88h-5a2.92,2.92,0,0,0,.19,1.09,2.06,2.06,0,0,0,.52.76,2,2,0,0,0,.75.44,3,3,0,0,0,1,.15,3.74,3.74,0,0,0,1.39-.28,3.43,3.43,0,0,0,1-.55h.06V51a9,9,0,0,1-1.18.41,4.78,4.78,0,0,1-1.27.17,3.63,3.63,0,0,1-2.64-.92,3.44,3.44,0,0,1-1-2.6,3.73,3.73,0,0,1,.91-2.65,3.12,3.12,0,0,1,2.4-1,2.76,2.76,0,0,1,2.12.8,3.22,3.22,0,0,1,.75,2.28Z"/><path class="cls-3" d="M114.08,49.71V45.82a4.4,4.4,0,0,0-.83-.28,3.77,3.77,0,0,0-.8-.08,1.81,1.81,0,0,0-1.5.67,3,3,0,0,0-.54,1.89,3.34,3.34,0,0,0,.41,1.83,1.48,1.48,0,0,0,1.33.63,2.48,2.48,0,0,0,1-.22,4.1,4.1,0,0,0,.93-.56m1.15,1.67h-1.15v-.71a4.13,4.13,0,0,1-1,.66,2.86,2.86,0,0,1-1.17.24,2.31,2.31,0,0,1-1.94-.94,4.19,4.19,0,0,1-.72-2.6,4.46,4.46,0,0,1,.25-1.54,3.56,3.56,0,0,1,.67-1.15,2.83,2.83,0,0,1,1-.71,2.8,2.8,0,0,1,1.14-.24,3.68,3.68,0,0,1,1,.11,4.51,4.51,0,0,1,.87.35v-3h1.15Z"/><path class="cls-3" d="M126.67,48a3.46,3.46,0,0,0-.4-1.85,1.43,1.43,0,0,0-1.3-.63,2.59,2.59,0,0,0-1,.22,4.25,4.25,0,0,0-.95.56v3.89a4.77,4.77,0,0,0,.84.3,3.3,3.3,0,0,0,.79.09,1.86,1.86,0,0,0,1.49-.62,2.94,2.94,0,0,0,.54-2m1.19,0a4.55,4.55,0,0,1-.24,1.53A3.41,3.41,0,0,1,127,50.6a3,3,0,0,1-1,.72,2.68,2.68,0,0,1-1.14.24,3.38,3.38,0,0,1-1-.14,4.6,4.6,0,0,1-.85-.37l-.07.32h-1.08V41.9H123v3.39a4.78,4.78,0,0,1,1-.65,2.86,2.86,0,0,1,1.22-.25,2.26,2.26,0,0,1,1.91.92,4.25,4.25,0,0,1,.7,2.61"/><polygon class="cls-3" points="135.47 44.58 131.51 53.89 130.3 53.89 131.56 51.05 128.85 44.58 130.1 44.58 132.18 49.62 134.28 44.58 135.47 44.58"/><path class="cls-3" d="M146.16,47.88l-1.1-3.2-1.1,3.2Zm3.63,3.49h-2.44l-.63-1.84H143.4l-.63,1.84H140.4l3.35-9.06h2.69Z"/><path class="cls-3" d="M154.53,51.56a5.88,5.88,0,0,1-1.64-.21,3.58,3.58,0,0,1-1.29-.66,3,3,0,0,1-.84-1.12,4.4,4.4,0,0,1,0-3.24,3.11,3.11,0,0,1,.89-1.15,3.63,3.63,0,0,1,1.28-.63,5.65,5.65,0,0,1,1.51-.2,5.12,5.12,0,0,1,1.29.15,6.07,6.07,0,0,1,1.1.4v1.88h-.31l-.31-.26a2.74,2.74,0,0,0-.44-.29,2.94,2.94,0,0,0-.55-.22,2.46,2.46,0,0,0-.7-.09,1.67,1.67,0,0,0-1.35.56,2.27,2.27,0,0,0-.47,1.52,2.1,2.1,0,0,0,.49,1.5,1.8,1.8,0,0,0,1.37.51,2.78,2.78,0,0,0,.75-.09,2.48,2.48,0,0,0,.55-.22,2.59,2.59,0,0,0,.37-.25l.29-.26h.31V51a5.92,5.92,0,0,1-1.08.39,5.1,5.1,0,0,1-1.25.14"/><path class="cls-3" d="M165.16,51.38H163V48a8.12,8.12,0,0,0,0-.83,1.73,1.73,0,0,0-.15-.61.73.73,0,0,0-.35-.33,1.65,1.65,0,0,0-.65-.1,2,2,0,0,0-.6.1,3.22,3.22,0,0,0-.66.31v4.85h-2.2V41.9h2.2v3.39a5.57,5.57,0,0,1,1.12-.7,2.85,2.85,0,0,1,1.19-.24,2.29,2.29,0,0,1,1.73.65,2.69,2.69,0,0,1,.62,1.93Z"/><path class="cls-3" d="M169.39,51.38h-2.2V44.53h2.2Zm.07-7.81h-2.34V41.9h2.34Z"/><rect class="cls-3" x="171.45" y="41.9" width="2.2" height="9.48"/><rect class="cls-3" x="175.71" y="41.9" width="2.2" height="9.48"/><path class="cls-3" d="M184.5,47.08a1.53,1.53,0,0,0-.34-1,1.31,1.31,0,0,0-1-.35,1.59,1.59,0,0,0-1,.33,1.39,1.39,0,0,0-.45,1Zm2.2,1.29h-5a1.59,1.59,0,0,0,.61,1.24A2.72,2.72,0,0,0,184,50a3.72,3.72,0,0,0,1.35-.25,4.29,4.29,0,0,0,1-.54h.24V51a8.09,8.09,0,0,1-1.4.43,7.32,7.32,0,0,1-1.45.13,4.76,4.76,0,0,1-3.15-.93,3.27,3.27,0,0,1-1.1-2.64,3.54,3.54,0,0,1,1-2.68,4,4,0,0,1,2.84-1,3.39,3.39,0,0,1,2.51.85,3.29,3.29,0,0,1,.84,2.43Z"/><path class="cls-3" d="M194.21,49.22a2,2,0,0,1-.95,1.71,4.54,4.54,0,0,1-2.6.65,7.39,7.39,0,0,1-1.66-.17,6.32,6.32,0,0,1-1.19-.38V49.23h.2l.38.25a3.8,3.8,0,0,0,.61.3,5.21,5.21,0,0,0,.77.24,4.09,4.09,0,0,0,.93.1,2.4,2.4,0,0,0,1-.14.46.46,0,0,0,.31-.43.4.4,0,0,0-.18-.36,2.39,2.39,0,0,0-.69-.22l-.66-.12a7.31,7.31,0,0,1-.76-.16,2.69,2.69,0,0,1-1.38-.76,1.89,1.89,0,0,1-.45-1.29,2,2,0,0,1,.93-1.65,4.36,4.36,0,0,1,2.55-.66,6.81,6.81,0,0,1,1.47.16,6,6,0,0,1,1.1.33v1.73h-.19A4.49,4.49,0,0,0,192.6,46a3.94,3.94,0,0,0-1.26-.21,2.38,2.38,0,0,0-.89.15c-.24.1-.36.24-.36.42a.45.45,0,0,0,.16.37A2.23,2.23,0,0,0,191,47l.72.13c.26,0,.52.1.78.16a2.44,2.44,0,0,1,1.28.71,1.81,1.81,0,0,1,.41,1.21"/><text class="cls-4" transform="translate(64.22 209.31)">Qualified</text><text class="cls-5" transform="translate(40 31.09)">Sellihca</text><path class="cls-6" d="M78.24,137.46h22c8,8.81,16.24,16.57,29,16.72,16.39.19,32-12.95,33.44-29.92,3.09-35.89-46.23-48.41-61.6-20.24H78.24c10.12-22.87,25.46-40.57,59-37,30.88,3.33,49.33,32.15,46.64,59.84a53.59,53.59,0,0,1-53.68,48.4c-28.11.21-43.44-16.38-51.92-37.84"/><path class="cls-6" d="M110.8,127.78H70.32c-2,1.79-.32,7.31-.88,10.56H51.84v-35.2h17.6V113.7H109C113,111,113.55,106.55,117,104c4.64-3.44,15.08-5.38,21.12-2.64,18.49,8.39,15.51,40.24-7.92,40.48-9.86.1-16.54-5.26-19.36-14.08"/></svg>