<svg xmlns="http://www.w3.org/2000/svg" viewBox="0 0 240.27 219.02"><defs><style>.cls-1,.cls-2,.cls-5{fill:#fff;}.cls-2{font-size:28.48px;font-family:Verdana, Verdana;}.cls-3,.cls-4{fill:none;stroke:#fff;}.cls-3{stroke-width:3px;}.cls-4{stroke-width:22.35px;}.cls-5{font-size:32px;font-family:Verdana-Bold, Verdana;font-weight:700;}</style></defs><title>Obszar roboczy 1</title><g id="Layer_5" data-name="Layer 5"><path class="cls-1" d="M50.22,42.75h-5a2.92,2.92,0,0,0,.19,1.09,2.06,2.06,0,0,0,.52.76,2,2,0,0,0,.75.44,3,3,0,0,0,1,.15A3.74,3.74,0,0,0,49,44.92a3.44,3.44,0,0,0,1-.55h.06v1.25A9.27,9.27,0,0,1,48.9,46a4.79,4.79,0,0,1-1.27.16A3.65,3.65,0,0,1,45,45.28a3.44,3.44,0,0,1-.95-2.6A3.73,3.73,0,0,1,45,40a3.12,3.12,0,0,1,2.4-1,2.75,2.75,0,0,1,2.12.8,3.22,3.22,0,0,1,.75,2.28Zm-1.12-.88a2,2,0,0,0-.45-1.4A1.73,1.73,0,0,0,47.3,40a2,2,0,0,0-1.45.54,2.12,2.12,0,0,0-.61,1.35Z"/><path class="cls-1" d="M61.88,46H60.73V42.17c0-.29,0-.57,0-.85a1.8,1.8,0,0,0-.17-.65.92.92,0,0,0-.4-.4,1.69,1.69,0,0,0-.75-.13,2.13,2.13,0,0,0-1,.24,5.9,5.9,0,0,0-1,.61c0,.09,0,.2,0,.33s0,.25,0,.37V46H56.34V42.17q0-.45,0-.85a1.8,1.8,0,0,0-.17-.65.91.91,0,0,0-.4-.39,1.73,1.73,0,0,0-.75-.13,2.1,2.1,0,0,0-.94.23,5.6,5.6,0,0,0-.94.59V46H52V39.25h1.15V40a5,5,0,0,1,1.07-.69,2.63,2.63,0,0,1,1.13-.25,2.23,2.23,0,0,1,1.18.29,1.8,1.8,0,0,1,.72.81,5.71,5.71,0,0,1,1.27-.84,2.94,2.94,0,0,1,1.22-.26,2,2,0,0,1,1.65.68,3,3,0,0,1,.53,1.89Z"/><path class="cls-1" d="M70.07,42.57a4.61,4.61,0,0,1-.24,1.52,3.31,3.31,0,0,1-.67,1.16,2.82,2.82,0,0,1-.95.7,2.78,2.78,0,0,1-1.16.25,3.7,3.7,0,0,1-1-.12,4,4,0,0,1-.87-.36v2.83H64.07v-9.3h1.15V40a4.46,4.46,0,0,1,1-.64,2.9,2.9,0,0,1,1.22-.26,2.25,2.25,0,0,1,1.92.93A4.28,4.28,0,0,1,70.07,42.57Zm-1.19,0a3.27,3.27,0,0,0-.42-1.84,1.46,1.46,0,0,0-1.29-.61,2.51,2.51,0,0,0-1,.21,4.46,4.46,0,0,0-1,.56v3.87a4.58,4.58,0,0,0,.84.3,3.62,3.62,0,0,0,.8.08,1.83,1.83,0,0,0,1.49-.65A3,3,0,0,0,68.89,42.6Z"/><path class="cls-1" d="M77.64,42.65a3.81,3.81,0,0,1-.85,2.62,3.19,3.19,0,0,1-4.56,0,3.82,3.82,0,0,1-.85-2.62A3.84,3.84,0,0,1,72.23,40a3.18,3.18,0,0,1,4.56,0A3.83,3.83,0,0,1,77.64,42.65Zm-1.19,0a3.08,3.08,0,0,0-.51-2,1.92,1.92,0,0,0-2.86,0,3.09,3.09,0,0,0-.51,2,3.09,3.09,0,0,0,.51,1.93,1.89,1.89,0,0,0,2.86,0A3.07,3.07,0,0,0,76.45,42.65Z"/><path class="cls-1" d="M88,39.25,86.21,46H85.15L83.4,40.8,81.66,46H80.61l-1.79-6.79H80l1.25,5.26L83,39.25h.94l1.74,5.26,1.18-5.26Z"/><path class="cls-1" d="M95.33,42.75h-5a2.92,2.92,0,0,0,.19,1.09,2,2,0,0,0,1.26,1.2,3,3,0,0,0,1,.15,3.74,3.74,0,0,0,1.39-.28,3.43,3.43,0,0,0,1-.55h.06v1.25A9.27,9.27,0,0,1,94,46a4.79,4.79,0,0,1-1.27.16,3.65,3.65,0,0,1-2.64-.92,3.44,3.44,0,0,1-.95-2.6A3.73,3.73,0,0,1,90.07,40a3.12,3.12,0,0,1,2.4-1,2.76,2.76,0,0,1,2.12.8,3.22,3.22,0,0,1,.75,2.28Zm-1.12-.88a2,2,0,0,0-.45-1.4A1.73,1.73,0,0,0,92.41,40a2,2,0,0,0-1.45.54,2.12,2.12,0,0,0-.61,1.35Z"/><path class="cls-1" d="M101.3,40.5h-.06a4.08,4.08,0,0,0-.5-.09,5,5,0,0,0-.57,0,2.35,2.35,0,0,0-1,.23,4.68,4.68,0,0,0-.95.6V46H97.06V39.25h1.15v1a5.59,5.59,0,0,1,1.2-.77,2.61,2.61,0,0,1,1.06-.23l.43,0,.4.06Z"/><path class="cls-1" d="M108.09,42.75h-5a2.92,2.92,0,0,0,.19,1.09,2.06,2.06,0,0,0,.52.76,2,2,0,0,0,.75.44,3,3,0,0,0,1,.15,3.74,3.74,0,0,0,1.39-.28,3.43,3.43,0,0,0,1-.55H108v1.25a9.27,9.27,0,0,1-1.18.41,4.79,4.79,0,0,1-1.27.16,3.64,3.64,0,0,1-2.64-.92,3.44,3.44,0,0,1-.95-2.6,3.73,3.73,0,0,1,.91-2.64,3.12,3.12,0,0,1,2.4-1,2.75,2.75,0,0,1,2.12.8,3.22,3.22,0,0,1,.75,2.28ZM107,41.88a2,2,0,0,0-.45-1.4,1.73,1.73,0,0,0-1.35-.49,2,2,0,0,0-1.45.54,2.12,2.12,0,0,0-.61,1.35Z"/><path class="cls-1" d="M115.35,46h-1.15v-.71a4.16,4.16,0,0,1-1,.66,2.85,2.85,0,0,1-1.16.24,2.31,2.31,0,0,1-1.94-.94,4.18,4.18,0,0,1-.72-2.6,4.46,4.46,0,0,1,.25-1.54,3.56,3.56,0,0,1,.67-1.15,2.83,2.83,0,0,1,2.11-.95,3.65,3.65,0,0,1,1,.11,4.47,4.47,0,0,1,.87.35v-3h1.15Zm-1.15-1.66V40.49a4.33,4.33,0,0,0-.83-.29,3.78,3.78,0,0,0-.8-.08,1.82,1.82,0,0,0-1.5.67,3,3,0,0,0-.54,1.89,3.34,3.34,0,0,0,.41,1.83,1.48,1.48,0,0,0,1.33.63,2.47,2.47,0,0,0,1-.22A4.14,4.14,0,0,0,114.19,44.37Z"/><path class="cls-1" d="M128,42.59a4.55,4.55,0,0,1-.24,1.53,3.4,3.4,0,0,1-.65,1.14,3,3,0,0,1-1,.72,2.68,2.68,0,0,1-1.14.24,3.37,3.37,0,0,1-1-.14,4.74,4.74,0,0,1-.85-.37L123,46H122V36.56h1.15V40a4.81,4.81,0,0,1,1-.65,2.86,2.86,0,0,1,1.22-.25,2.26,2.26,0,0,1,1.91.92A4.25,4.25,0,0,1,128,42.59Zm-1.19,0a3.45,3.45,0,0,0-.4-1.85,1.42,1.42,0,0,0-1.3-.63,2.58,2.58,0,0,0-1,.22,4.22,4.22,0,0,0-1,.56v3.89a4.92,4.92,0,0,0,.84.3,3.36,3.36,0,0,0,.8.09,1.86,1.86,0,0,0,1.49-.62A2.94,2.94,0,0,0,126.78,42.62Z"/><path class="cls-1" d="M135.59,39.25l-4,9.3h-1.22l1.26-2.84L129,39.25h1.25l2.07,5,2.1-5Z"/><path class="cls-1" d="M149.9,46h-2.44l-.64-1.84h-3.32L142.88,46h-2.37L143.86,37h2.69Zm-3.63-3.49-1.1-3.2-1.1,3.2Z"/><path class="cls-1" d="M154.65,46.23A5.91,5.91,0,0,1,153,46a3.59,3.59,0,0,1-1.29-.66,3,3,0,0,1-.84-1.12,4.39,4.39,0,0,1,0-3.24,3.11,3.11,0,0,1,.89-1.15,3.63,3.63,0,0,1,1.28-.63,5.6,5.6,0,0,1,1.51-.2,5.16,5.16,0,0,1,1.29.15,6.13,6.13,0,0,1,1.1.4v1.87h-.31l-.31-.26a2.73,2.73,0,0,0-.44-.29,2.89,2.89,0,0,0-.55-.22,2.43,2.43,0,0,0-.7-.09,1.67,1.67,0,0,0-1.35.56,2.28,2.28,0,0,0-.47,1.52,2.11,2.11,0,0,0,.48,1.5,1.8,1.8,0,0,0,1.37.51,2.76,2.76,0,0,0,.75-.09,2.44,2.44,0,0,0,.55-.22,2.63,2.63,0,0,0,.37-.25l.29-.26H157V45.7a6,6,0,0,1-1.08.39A5.14,5.14,0,0,1,154.65,46.23Z"/><path class="cls-1" d="M165.28,46h-2.2v-3.4a8,8,0,0,0,0-.83,1.76,1.76,0,0,0-.15-.61.72.72,0,0,0-.35-.33,1.65,1.65,0,0,0-.65-.1,2,2,0,0,0-.6.1,3.25,3.25,0,0,0-.66.31V46h-2.2V36.56h2.2V40a5.54,5.54,0,0,1,1.12-.7,2.84,2.84,0,0,1,1.19-.24,2.29,2.29,0,0,1,1.73.65,2.69,2.69,0,0,1,.62,1.93Z"/><path class="cls-1" d="M169.57,38.23h-2.34V36.56h2.34ZM169.5,46h-2.2V39.19h2.2Z"/><path class="cls-1" d="M173.77,46h-2.2V36.56h2.2Z"/><path class="cls-1" d="M178,46h-2.2V36.56H178Z"/><path class="cls-1" d="M186.82,43h-5a1.59,1.59,0,0,0,.61,1.24,2.71,2.71,0,0,0,1.66.43,3.73,3.73,0,0,0,1.35-.25,4.23,4.23,0,0,0,1-.54h.24v1.76a8.15,8.15,0,0,1-1.4.43,7.29,7.29,0,0,1-1.45.13,4.76,4.76,0,0,1-3.15-.93,3.27,3.27,0,0,1-1.1-2.64,3.54,3.54,0,0,1,1-2.68,4,4,0,0,1,2.84-1,3.39,3.39,0,0,1,2.5.84,3.3,3.3,0,0,1,.84,2.43Zm-2.2-1.29a1.53,1.53,0,0,0-.34-1,1.31,1.31,0,0,0-1-.35,1.59,1.59,0,0,0-1,.33,1.4,1.4,0,0,0-.45,1Z"/><path class="cls-1" d="M194.33,43.88a2,2,0,0,1-1,1.71,4.53,4.53,0,0,1-2.6.65,7.4,7.4,0,0,1-1.66-.17,6.35,6.35,0,0,1-1.19-.38V43.89h.2l.38.25a3.85,3.85,0,0,0,.61.3,5.06,5.06,0,0,0,.77.24,4.07,4.07,0,0,0,.93.1,2.38,2.38,0,0,0,1-.14.46.46,0,0,0,.31-.43.4.4,0,0,0-.18-.36,2.37,2.37,0,0,0-.69-.22l-.66-.12a7.08,7.08,0,0,1-.76-.16,2.69,2.69,0,0,1-1.38-.76,1.89,1.89,0,0,1-.45-1.29,2,2,0,0,1,.93-1.65,4.36,4.36,0,0,1,2.55-.66,6.8,6.8,0,0,1,1.47.16,6.1,6.1,0,0,1,1.1.33v1.73h-.19a4.46,4.46,0,0,0-1.11-.55,3.93,3.93,0,0,0-1.26-.21,2.36,2.36,0,0,0-.89.15c-.24.1-.36.24-.36.42a.45.45,0,0,0,.16.37,2.24,2.24,0,0,0,.77.26l.72.13c.26,0,.52.1.78.16a2.44,2.44,0,0,1,1.28.71A1.81,1.81,0,0,1,194.33,43.88Z"/><text class="cls-2" transform="translate(56.26 210.38)">Qualified</text><polyline class="cls-3" points="191.13 19.93 238.77 19.93 238.77 201.23 186.82 201.23"/><polyline class="cls-3" points="50.22 201.23 1.5 201.22 1.5 19.93 51.96 19.93"/><polyline class="cls-4" points="102.19 142.44 102.19 67.2 171.35 67.2 171.35 177.03"/><polyline class="cls-4" points="136.6 90.84 136.6 165.83 67.44 165.83 67.44 56"/><text class="cls-5" transform="translate(56.92 27.63)">TransQ</text></g></svg>