<?xml version="1.0" encoding="UTF-8"?>
<svg width="18px" height="18px" viewBox="0 0 18 18" version="1.1" xmlns="http://www.w3.org/2000/svg" xmlns:xlink="http://www.w3.org/1999/xlink">
    <!-- Generator: Sketch 51.2 (57519) - http://www.bohemiancoding.com/sketch -->
    <title>icon-search</title>
    <desc>Created with Sketch.</desc>
    <defs></defs>
    <g id="Symbols" stroke="none" stroke-width="1" fill="none" fill-rule="evenodd">
        <g id="menu-bar" transform="translate(-1122.000000, -26.000000)" fill="#000000">
            <g id="icon-search">
                <path d="M1139.55948,41.4322286 L1135.64907,37.5218927 C1135.62829,37.5011106 1135.60391,37.4865847 1135.58219,37.4672409 C1136.35163,36.3000655 1136.80071,34.9029212 1136.80071,33.4004283 C1136.80071,29.313265 1133.48745,26 1129.40036,26 C1125.31327,26 1122,29.313265 1122,33.4003564 C1122,37.4873758 1125.31319,40.8007127 1129.40028,40.8007127 C1130.90285,40.8007127 1132.29992,40.3516332 1133.4671,39.5821934 C1133.48644,39.6038384 1133.50089,39.628216 1133.52168,39.6489981 L1137.43216,43.5594778 C1138.01959,44.1468407 1138.97197,44.1468407 1139.55948,43.5594778 C1140.14684,42.9720429 1140.14684,42.0196635 1139.55948,41.4322286 Z M1129.40036,38.2352424 C1126.73004,38.2352424 1124.5654,36.0705999 1124.5654,33.4003564 C1124.5654,30.7300409 1126.73011,28.5653984 1129.40036,28.5653984 C1132.07053,28.5653984 1134.23524,30.7301128 1134.23524,33.4003564 C1134.23524,36.0705999 1132.07053,38.2352424 1129.40036,38.2352424 Z"></path>
            </g>
        </g>
    </g>
</svg>