<?xml version="1.0" encoding="UTF-8"?>
<svg width="40px" height="40px" viewBox="0 0 40 40" version="1.1" xmlns="http://www.w3.org/2000/svg" xmlns:xlink="http://www.w3.org/1999/xlink">
    <!-- Generator: Sketch 51.2 (57519) - http://www.bohemiancoding.com/sketch -->
    <title>5b20a6d1f4d69d23bc4a18c2_Linkedin Icon</title>
    <desc>Created with Sketch.</desc>
    <defs></defs>
    <g id="Symbols" stroke="none" stroke-width="1" fill="none" fill-rule="evenodd">
        <g id="footer" transform="translate(-1100.000000, -541.000000)" fill="#FFFFFF" fill-rule="nonzero">
            <g id="footer-2">
                <g id="Group-22" transform="translate(1100.000000, 91.000000)">
                    <g id="Connect" transform="translate(0.000000, 411.000000)">
                        <g id="5b20a6d1f4d69d23bc4a18c2_Linkedin-Icon" transform="translate(0.000000, 39.000000)">
                            <path d="M20,0 C8.954305,-6.76353751e-16 1.3527075e-15,8.954305 0,20 C-1.3527075e-15,31.045695 8.954305,40 20,40 C31.045695,40 40,31.045695 40,20 C40,14.6956702 37.8928632,9.60859195 34.1421356,5.85786438 C30.3914081,2.10713681 25.3043298,3.24796525e-16 20,0 Z M14.5,28.93 L10.36,28.93 L10.36,15.65 L14.49,15.65 L14.5,28.93 Z M12.43,13.83 C11.1100394,13.83 10.04,12.7599606 10.04,11.44 C10.04,10.1200394 11.1100394,9.05 12.43,9.05 C13.7499606,9.05 14.82,10.1200394 14.82,11.44 C14.8200056,12.0756038 14.5668305,12.6850301 14.1164534,13.1335306 C13.6660763,13.5820311 13.0555983,13.8326594 12.42,13.83 L12.43,13.83 Z M30,28.93 L25.82,28.93 L25.82,22.47 C25.82,20.93 25.82,18.95 23.68,18.95 C21.54,18.95 21.2,20.63 21.2,22.36 L21.2,28.93 L17.08,28.93 L17.08,15.65 L21.08,15.65 L21.08,17.46 L21.14,17.46 C21.9423915,16.0984383 23.4201215,15.2791787 25,15.32 C29.18,15.32 29.95,18.07 29.95,21.65 L30,28.93 Z" id="Shape"></path>
                        </g>
                    </g>
                </g>
            </g>
        </g>
    </g>
</svg>