<?xml version="1.0" encoding="UTF-8"?>
<svg width="60px" height="26px" viewBox="0 0 60 26" version="1.1" xmlns="http://www.w3.org/2000/svg" xmlns:xlink="http://www.w3.org/1999/xlink">
    <!-- Generator: Sketch 51.2 (57519) - http://www.bohemiancoding.com/sketch -->
    <title>infinity_symbol</title>
    <desc>Created with Sketch.</desc>
    <defs></defs>
    <g id="Homepage" stroke="none" stroke-width="1" fill="none" fill-rule="evenodd">
        <g id="CO-Homepage-v2" transform="translate(-1143.000000, -2615.000000)" stroke="#FFFFFF" stroke-width="2">
            <g id="sec---06-key-numbers" transform="translate(0.000000, 2468.000000)">
                <g id="key-numbers" transform="translate(140.000000, 85.000000)">
                    <g id="key-numbers-hugs" transform="translate(900.000000, 0.000000)">
                        <g id="infinity_symbol" transform="translate(99.000000, 58.000000)">
                            <path d="M17.0229604,5.09191001 L28.9557522,5.09191001 L28.9557522,17.0247019 C28.9557522,23.6150009 23.6132593,28.9574938 17.0229604,28.9574938 C10.4326614,28.9574938 5.09016848,23.6150009 5.09016848,17.0247019 C5.09016848,13.8599287 6.34736973,10.8247764 8.5852023,8.58694383 C10.8230349,6.34911126 13.8581872,5.09191001 17.0229604,5.09191001 Z" id="Shape" transform="translate(17.022960, 17.024702) rotate(45.000000) translate(-17.022960, -17.024702) "></path>
                            <path d="M33.9326904,17.0241624 L42.3705584,25.4620305 C44.6083999,27.6999303 47.6435993,28.9571742 50.8084264,28.9571742 C53.9732535,28.9571742 57.0084529,27.6999303 59.2462944,25.4620305 C61.4841943,23.2241889 62.7414382,20.1889895 62.7414382,17.0241624 C62.7414382,13.8593354 61.4841943,10.8241359 59.2462944,8.58629442 C57.0084529,6.34839457 53.9732535,5.09115063 50.8084264,5.09115063 C47.6435993,5.09115063 44.6083999,6.34839457 42.3705584,8.58629442 L33.9326904,17.0241624" id="Shape"></path>
                        </g>
                    </g>
                </g>
            </g>
        </g>
    </g>
</svg>