<svg id="Lag_1" data-name="Lag 1" xmlns="http://www.w3.org/2000/svg" viewBox="0 0 300 286.32"><defs><style>.cls-1{fill:gray;}.cls-2{fill:#fff;}</style></defs><title>Kongsberg-logo-grey</title><g id="g2993"><path id="path3123" class="cls-1" d="M376.29,260.38H226V45.74H376.29Z" transform="translate(-150 -45.74)"/><path id="path3135" class="cls-2" d="M300.26,110.53a85.55,85.55,0,0,0-27.57,4.53L262.25,97.13c-.05-.16-.14-.35,0-.51s.1-.26.69-.26,4.29.16,4.53.18a.64.64,0,0,1,.63.7c0,.52.13,3.24.13,3.45,0,.53.7.85,1,.07s.9-2.37,1-2.65c.2-.63.57-.46,1.33,0l2.79,1.55c.16.08.22.21.09.84s-.54,2.94-.62,3.24-.12.5-.74.37-2.49-.56-2.69-.56-.67,0-.57.6a6.53,6.53,0,0,0,4,3.24A6.61,6.61,0,0,0,281,105a7.24,7.24,0,0,0,1.28-4.44.82.82,0,0,0-.34-.73.3.3,0,0,0-.37,0c-.41.45-.6,1-1.06,1.48a2.44,2.44,0,0,1-2.24.52c-1.47-.53-2-2.1-2-3.57a2.66,2.66,0,0,1,1.08-2.16,2.18,2.18,0,0,1,2.27-.12c.57.23,1,.82,1.64.83a.44.44,0,0,0,.23-.75c-.49-.61-2.31-2.25-2.5-4.56a6,6,0,0,1,1.74-4.91.45.45,0,0,1,.51-.09,6.17,6.17,0,0,1,3.65,4.69,8.22,8.22,0,0,1-.68,4.22.56.56,0,0,0,.29.73.63.63,0,0,0,.58-.32c.55-.75,1.13-1.82,2.16-1.9a2.4,2.4,0,0,1,2.34,1.13,4.15,4.15,0,0,1,.42,3.72,2.21,2.21,0,0,1-2,1.32c-.95.1-1.59-.57-2.3-1a.38.38,0,0,0-.43,0c-.3.31-.08.76,0,1.08a6.68,6.68,0,0,0,5.77,4.22,7.12,7.12,0,0,0,6.85-4,5.52,5.52,0,0,0,.6-2.5.45.45,0,0,0-.27-.37c-.58-.11-1,.43-1.41.7L295,99.63a.44.44,0,0,1-.36,0c-.88-1-1.68-2.1-2.46-3.17a.4.4,0,0,1,0-.43c.69-1.09,1.47-2.12,2.25-3.16.11-.15.26-.29.45-.21,1.09.7,2.09,1.58,3.22,2.17a.47.47,0,0,0,.51-.73c-.32-.63-1.48-2.28-1.69-2.66s-.48-.64-.1-.92,3.22-2.23,3.31-2.3a.27.27,0,0,1,.3,0c.09.07,2.92,2,3.31,2.3s.12.54-.1.92-1.37,2-1.69,2.66a.47.47,0,0,0,.51.73c1.13-.59,2.13-1.47,3.21-2.17.19-.08.35.06.46.21.78,1,1.56,2.07,2.25,3.16a.4.4,0,0,1,0,.43c-.78,1.07-1.58,2.17-2.47,3.17a.45.45,0,0,1-.36,0l-1.81-1.37c-.45-.27-.84-.81-1.42-.7a.44.44,0,0,0-.26.37,5.39,5.39,0,0,0,.59,2.5,7.11,7.11,0,0,0,6.85,4,6.68,6.68,0,0,0,5.77-4.22c.11-.32.33-.77,0-1.08a.38.38,0,0,0-.43,0c-.71.47-1.35,1.14-2.29,1a2.23,2.23,0,0,1-2-1.32,4.18,4.18,0,0,1,.43-3.72A2.39,2.39,0,0,1,313.32,94c1,.08,1.61,1.15,2.14,1.9a.65.65,0,0,0,.59.32.55.55,0,0,0,.29-.73,8.15,8.15,0,0,1-.67-4.22,6.16,6.16,0,0,1,3.64-4.69.44.44,0,0,1,.51.09,6,6,0,0,1,1.73,4.91c-.17,2.31-2,4-2.49,4.56a.44.44,0,0,0,.23.75c.65,0,1.06-.6,1.64-.83a2.16,2.16,0,0,1,2.26.12,2.64,2.64,0,0,1,1.09,2.16c0,1.47-.52,3-2,3.57a2.46,2.46,0,0,1-2.24-.52c-.46-.44-.65-1-1.05-1.48a.32.32,0,0,0-.38,0,.9.9,0,0,0-.34.73,7.18,7.18,0,0,0,1.29,4.44,6.61,6.61,0,0,0,7.2,2.34,6.5,6.5,0,0,0,4-3.24c.11-.58-.36-.59-.57-.6s-2.07.44-2.68.56-.67-.06-.75-.37-.49-2.59-.62-3.24-.07-.76.09-.84L329,98.1c.74-.45,1.12-.62,1.32,0,.09.28.66,1.74,1,2.65s1,.46,1-.07c0-.21.08-2.93.12-3.45s.3-.66.64-.7,3.93-.19,4.52-.18.59.07.69.26a.58.58,0,0,1,0,.51l-10.43,17.93a85.5,85.5,0,0,0-27.57-4.53" transform="translate(-150 -45.74)"/><path id="path3139" class="cls-2" d="M300.26,77.2A4.75,4.75,0,1,1,295.52,82a4.75,4.75,0,0,1,4.74-4.75" transform="translate(-150 -45.74)"/><path id="path3143" class="cls-2" d="M263.3,85a3.8,3.8,0,1,1-3.8,3.8,3.8,3.8,0,0,1,3.8-3.8" transform="translate(-150 -45.74)"/><path id="path3147" class="cls-2" d="M267.84,75.34a3.8,3.8,0,1,1-3.79,3.8,3.8,3.8,0,0,1,3.79-3.8" transform="translate(-150 -45.74)"/><path id="path3151" class="cls-2" d="M278.63,72.12a3.8,3.8,0,1,1-3.79,3.8,3.8,3.8,0,0,1,3.79-3.8" transform="translate(-150 -45.74)"/><path id="path3155" class="cls-2" d="M289.23,76.85a3.8,3.8,0,1,1-3.79,3.8,3.81,3.81,0,0,1,3.79-3.8" transform="translate(-150 -45.74)"/><path id="path3159" class="cls-2" d="M337.89,85a3.8,3.8,0,1,0,3.8,3.8,3.8,3.8,0,0,0-3.8-3.8" transform="translate(-150 -45.74)"/><path id="path3163" class="cls-2" d="M333.35,75.34a3.8,3.8,0,1,0,3.79,3.8,3.8,3.8,0,0,0-3.79-3.8" transform="translate(-150 -45.74)"/><path id="path3167" class="cls-2" d="M322.56,72.12a3.8,3.8,0,1,0,3.79,3.8,3.8,3.8,0,0,0-3.79-3.8" transform="translate(-150 -45.74)"/><path id="path3171" class="cls-2" d="M312,76.85a3.8,3.8,0,1,0,3.79,3.8,3.8,3.8,0,0,0-3.79-3.8" transform="translate(-150 -45.74)"/><path id="path3175" class="cls-2" d="M302.92,63.35l-1.21,4.5v0c1.26-.32,2.51-.75,3.77-1.11v5.31c-1.26-.36-2.51-.79-3.77-1.11v0L303,75.64a7,7,0,0,0-5.4,0L298.8,71v0c-1.25.32-2.49.75-3.75,1.11V66.77c1.26.36,2.5.79,3.75,1.11v0l-1.2-4.5Z" transform="translate(-150 -45.74)"/><path id="path3179" class="cls-2" d="M254.65,139.83a9.22,9.22,0,0,0,1.34,8.3,6.6,6.6,0,0,0,6.69,2.22,5,5,0,0,0,3.47-3.51,3.85,3.85,0,0,0-1.56-3.93,4.67,4.67,0,0,0-4.43-.37,5.68,5.68,0,0,0-1.89,1.85,7.16,7.16,0,0,1-3.62-4.56m15.54-12.43a15.47,15.47,0,0,1,8.93,9.79l9.61-5.05c-4.6-4.8-11.87-6.27-18.54-4.74m23.41,2.18c1.82-.87,3.59-2,5.41-2.84l2.66,4.16-.23.11L275,144.92c-.16-4.49-1.17-8.85-4.71-12a9.2,9.2,0,0,0-8.46-1.88c-1.73.64-3.58,2.14-3.77,3.92a4.74,4.74,0,0,0,1,3.46,9.76,9.76,0,0,1,5.54-.75,8.42,8.42,0,0,1,4.28,14.55,11.68,11.68,0,0,1-19.63-7.88c-.6-8.43,5.5-16.08,13.68-19.5,6.44-2.85,15.89-3.81,22.55-.76a24.39,24.39,0,0,1,8.13,5.52" transform="translate(-150 -45.74)"/><path id="path3183" class="cls-2" d="M304.58,216.59a5.5,5.5,0,0,0-5.1,1.91,4.07,4.07,0,0,0-.29,4.47,5,5,0,0,0,4.07,2.35c-.57,2.75-2.5,5.08-4.56,7.15,2.84-1.2,5.79-2.55,7.87-5.13,2-2.33,3.35-5.81,1.59-8.57a5.57,5.57,0,0,0-3.58-2.18m-12.08-11C283,203.77,272,204,263.82,208.25c-5.4,2.69-9.84,7.71-9.55,13.52,0,4.61,4,8.57,8.3,10.62a8.93,8.93,0,0,1-1.62-5.47,10.27,10.27,0,0,1,2.2-6.25c4.33-5.18,11.42-6.87,18.35-5.41A26.61,26.61,0,0,1,294.14,206l-1.64-.36ZM318,184.34l-.06.1c4.25,1.81,5.61,6,5.8,9.92v16.15l.09,5.39a21.32,21.32,0,0,0,5.51,13.69l12.17-6.4a24.24,24.24,0,0,1-5.07-13.88l0-9.05c-.11-2.34-.21-4.69-1.31-6.65-3.64-5.91-10.85-7.44-17.11-9.27m-12.63-16.47-7.48,3.91v23.14l-10.12,5.24a84.11,84.11,0,0,1,17.6,3.75Zm5.51-2.78v17.55l7.6-4.06.07-7.7c-.12-2,.26-4.16-1.06-5.69-1.62-1.85-4.84-1.16-6.61-.1m19.76-9.22c-4.22.53-7.57,3-11.17,4.8a6.75,6.75,0,0,1,4.47,6.26l0,8.78.05,0,12.53-6.56.1-4.44c-.09-2.3.3-4.78-.94-6.68a5.54,5.54,0,0,0-5.06-2.13M292.46,192V145.7l-12.11,6.43-.24.09v18.07c-3,.08-6-.25-8.64.61a7.05,7.05,0,0,0-4.78,5.36h13.42v22.2L292.46,192Zm12.9-29.79V138.92l-7.49,3.91v23.32Zm24.58-34.93c-3.94.41-7.1,2.59-10.42,4.26,4.56,1.61,4.74,6.25,4.61,10.19l11.68-6.14c-.06-2.14.32-4.48-.92-6.23a5.53,5.53,0,0,0-4.95-2.08m10.2.44c1.6,3.08.91,7.05,1,10.61l-1.6.84-20.88,10.94h0V139.4c-.12-1.38-.32-2.79-1.65-3.73-1.71-1.26-4.52-.49-6.18.35V159.4l12.95-6.59c3.86-1.91,9.18-2.79,13.15-.48,4,2.08,5.15,6,5,10l-.13,9.58-17.45,9.17-.09,0c6,2,12.68,4.66,15.77,10.47s1,13.78,2.08,20.23a18.34,18.34,0,0,0,4.18,8.84l.18-.09,5.25-2.76,2.65,4.2-18.5,9.72-8.28,4.34c-4.88-5.65-9-11.67-9.21-19.14l-.13-6.13.09-14.76c-.18-2.92-.27-6-3.16-7.75a4.87,4.87,0,0,0-4.37-.12v18.94c-8.74.18-17.12,2.26-23,8.58a36.85,36.85,0,0,0-4.2,5.32c-3.69-1.69-9.09-2-12.81-.14-3,1.51-5,4.34-4.52,7.54.47,3.43,4.36,6.06,7.81,6.76,8,1.4,17.15,0,21.84-6.63l.7-1.25a7.77,7.77,0,0,1-3.24-8.13c.64-3.4,4.24-6.59,8-7.17a11.2,11.2,0,0,1,10.45,3.21,9.74,9.74,0,0,1,1.71,10.49c-3.53,8.09-13.1,11.72-21.53,13.48-10.61,2.16-22.07,1.46-31.51-2.46-6-2.57-11.33-8-11.74-14.1-.69-7.61,4.17-14.09,11.22-18a40.7,40.7,0,0,1,14.7-4.53v-19H260c-.05-5.8,2.4-11.84,8.59-14.43a19.38,19.38,0,0,1,6.09-1.18V149.4l8.71-4.46,27.86-14.62,11.39-6c3.7-1.9,9.36-2.94,13.27-.7a9.34,9.34,0,0,1,4.22,4.11" transform="translate(-150 -45.74)"/><path id="path3187" class="cls-1" d="M251.63,332.06a13.34,13.34,0,0,1-8.19-5.51c-.75-1-11.66-17.56-15.23-23V324c0,3-.05,5.07,2.41,6.71v.15h-8.25v-.15c2.46-1.64,2.46-3.75,2.46-6.71V302.33c0-2.95-.62-4.44-3-6v-.15h8.67v.05l17.83,27.22V303c0-2.95,0-5.06-2.41-6.65v-.15H254v.15c-2.41,1.59-2.41,3.7-2.41,6.65v29.11" transform="translate(-150 -45.74)"/><path id="path3191" class="cls-1" d="M188.21,313.39c0,7.86,3.88,15,10.93,15,6.48,0,10.48-6.78,10.48-15,0-8.45-4.07-15.25-10.57-15.25s-10.84,6.58-10.84,15.25m27.67-.35c0,10.73-7.82,18.52-17,18.52S182,324.09,182,313.29c0-10,7.64-18.36,17.34-18.09,9.71-.06,16.56,8.36,16.56,17.84" transform="translate(-150 -45.74)"/><path id="path3195" class="cls-1" d="M283.44,327.92v-8.36c0-2.43-.31-4.79-2.68-5.74v-.16h8.38v16.68a52,52,0,0,1-10.25,1.38c-1.48,0-18,0-17.94-17.87.09-16.3,13.73-18.23,16.85-18.33s7.31.36,10.16,1.72v6.63h-.16c-2.21-3.23-4.65-5.5-9.57-5.5-3.52,0-11,3.31-11,15.62,0,2.88.62,10.8,7.17,13.72,1.26.55,5.68,1.84,9,.21" transform="translate(-150 -45.74)"/><path id="path3199" class="cls-1" d="M444.3,327.92v-8.36c0-2.43-.3-4.79-2.68-5.74v-.16H450v16.68a51.86,51.86,0,0,1-10.25,1.38c-1.48,0-18,0-17.93-17.87.08-16.3,13.72-18.23,16.84-18.33s7.31.36,10.16,1.72v6.63h-.16c-2.21-3.23-4.64-5.5-9.57-5.5-3.53,0-11,3.31-11,15.62,0,2.88.61,10.8,7.17,13.72,1.25.55,5.68,1.84,9,.21" transform="translate(-150 -45.74)"/><path id="path3203" class="cls-1" d="M298.05,321.83c2.06,3.68,5.76,6.93,9.34,6.63a6.34,6.34,0,0,0,6.05-6.75c0-7.66-14.88-6.23-14.76-16.92.09-7.63,6.91-9.72,11.46-9.72a21.86,21.86,0,0,1,6.92,1.21l-.22,6.3-.06,0c-2.74-4-4.53-4.78-7.42-4.78a5.42,5.42,0,0,0-5.3,5.28c0,8.06,15,5.84,15,17.9,0,6.66-5.86,10.44-12.25,10.44a22.25,22.25,0,0,1-8-1.78l-.78-7.82.07,0Z" transform="translate(-150 -45.74)"/><path id="path3207" class="cls-1" d="M334.34,299.22v28.72c4.53.85,12.28.12,12.18-7.52-.06-4.17-3-7.3-10.2-7.32l1-2.59c2.29-.54,6.56-1.4,6.56-6.55,0-4.48-5.85-5.95-9.57-4.74m18.27,21.29c0,4.07-2.35,7-5.9,8.74s-7.89,1.64-11.86,1.64h-8.42v-.17c2.65-1,2.33-4.86,2.33-7.29V303.49c0-2.38.37-6.25-2.33-7.25v-.16h12.11c7,0,11.32,2.81,11.32,7.51,0,3.56-2.31,5.78-7.36,7.6,3.54.62,10.11,2.21,10.11,9.32" transform="translate(-150 -45.74)"/><path id="path3211" class="cls-1" d="M381.09,302.16H381c-1.22-1.57-2.59-4.38-12.7-3.06v11h10v5.27h-.16c-.84-1.53-3.06-2.38-4.7-2.38h-5.1v14.85c12.76,1.52,14.74-3.47,15.67-4.71h.27l-2.39,7.69H359.92v-.15c2.71-1.41,2.69-4.3,2.69-6.67V303c0-2.42,0-5.71-2.69-6.71v-.16h21.17v6.05Z" transform="translate(-150 -45.74)"/><path id="path3215" class="cls-1" d="M420.87,330.81h-4.76c-1.78-.09-4.1,0-6.95-3.54s-9.34-13-9.34-13l1.3-2.42c3.4-.9,6.44-2.8,6.44-7.31,0-3.41-3-5.47-6.54-5.6a12.84,12.84,0,0,0-3.23.15v24.36c.11,2.67-.46,6.28,2.23,7.23v.15H389.73v-.15c2.68-1.28,2.16-4.67,2.32-7.23V303.3c-.16-2.63.37-6-2.32-7v-.15h12.55c7.73,0,11.14,3.68,11.14,8.48,0,4.64-3.63,7.12-8,8.34,4,5.54,11.09,16.16,15.48,17.79v.08Z" transform="translate(-150 -45.74)"/><path id="path3219" class="cls-1" d="M181.34,330.66v.16h-5.43a7.52,7.52,0,0,1-6.37-3.45l-10.16-15.15L168,303c2.64-2.84,3.69-5.55,0-6.74v-.15h10v.05l-13.22,14.43c4,5.7,11.67,18.07,16.57,20.09" transform="translate(-150 -45.74)"/><path id="path3223" class="cls-1" d="M152.38,303.48c0-2.38.31-6.23-2.38-7.24v-.15h10.39v.15c-2.69,1-2.38,4.86-2.38,7.24v19.9c0,2.43-.31,6.29,2.38,7.29v.16H150v-.16c2.69-1,2.38-4.91,2.38-7.29Z" transform="translate(-150 -45.74)"/></g></svg>