<?xml version="1.0" encoding="UTF-8"?>
<svg width="89px" height="23px" viewBox="0 0 89 23" version="1.1" xmlns="http://www.w3.org/2000/svg" xmlns:xlink="http://www.w3.org/1999/xlink">
    <!-- Generator: Sketch 52.4 (67378) - http://www.bohemiancoding.com/sketch -->
    <title>logo-atea</title>
    <desc>Created with Sketch.</desc>
    <defs>
        <polygon id="path-1" points="0.113727273 0.0604252632 22.0090909 0.0604252632 22.0090909 22.2660905 0.113727273 22.2660905"></polygon>
        <polygon id="path-3" points="0.786136364 0.30526316 21.2680511 0.30526316 21.2680511 22.6842105 0.786136364 22.6842105"></polygon>
    </defs>
    <g id="Page-1" stroke="none" stroke-width="1" fill="none" fill-rule="evenodd">
        <g id="logo-atea">
            <path d="M19.0568182,3.14657895 C19.0145455,3.14394737 18.9804545,3.13868421 18.9477273,3.13868421 C18.0777273,3.14131579 17.2090909,3.14 16.3390909,3.15184211 C16.1168182,3.15447368 15.8931818,3.18473684 15.6736364,3.22421053 C14.8186364,3.37684211 14.055,3.73473684 13.3554545,4.22421053 C12.2931818,4.96894737 11.4654545,5.92157895 10.7386364,6.96631579 C10.1495455,7.81631579 9.675,8.72289474 9.25636364,9.6597368 C9.20045455,9.7807895 9.14318182,9.9005263 9.08045455,10.0373684 L19.0568182,10.0373684 L19.0568182,3.14657895 Z M0,22.5860526 C0.0940909091,22.3873684 0.177272727,22.2084211 0.263181818,22.0307895 C2.16,18.0228947 4.05954545,14.0163158 5.95909091,10.0097368 C6.38045455,9.1163158 6.78272727,8.21368421 7.23136364,7.33342105 C8.16,5.51763158 9.34909091,3.88342105 10.9445455,2.54657895 C12.0054545,1.65710526 13.1959091,0.98868421 14.5636364,0.64 C15.2140909,0.47421053 15.8727273,0.39 16.5436364,0.39 L21.7636364,0.39 L21.9136364,0.39 L21.9136364,22.5781579 L19.065,22.5781579 L19.065,12.89 L18.9109091,12.89 C15.2236364,12.89 11.5377273,12.89 7.85318182,12.8873684 C7.74545455,12.8873684 7.69772727,12.9242105 7.65545455,13.015 C6.17454545,16.1584211 4.69090909,19.2992105 3.21136364,22.4426316 C3.15818182,22.5557895 3.09818182,22.59 2.97272727,22.5886842 C2.03590909,22.5834211 1.09772727,22.5860526 0.160909091,22.5860526 L0,22.5860526 Z" id="Fill-1" fill="#808080" fill-rule="nonzero"></path>
            <g id="Group-5" transform="translate(66.818182, 0.326184)">
                <g id="Fill-3-Clipped">
                    <mask id="mask-2" fill="white">
                        <use xlink:href="#path-1"></use>
                    </mask>
                    <g id="path-2"></g>
                    <path d="M12.7805455,9.57789474 C12.7750909,9.55026316 12.7750909,9.54105263 12.771,9.53052632 C12.7178182,9.41605263 12.6619091,9.30157895 12.6100909,9.18578947 C12.1341818,8.12 11.5778182,7.095 10.8769091,6.14763158 C10.1773636,5.20026316 9.38372727,4.34105263 8.38418182,3.67526316 C7.48418182,3.07526316 6.501,2.69894737 5.39372727,2.68578947 C4.57554545,2.67394737 3.75872727,2.67921053 2.94054545,2.67263158 C2.83281818,2.67131579 2.80554545,2.70157895 2.80554545,2.80552632 C2.80827273,5.02394737 2.80827273,7.24368421 2.80827273,9.46210526 C2.80827273,9.49894737 2.811,9.53842105 2.81236364,9.57789474 L12.7805455,9.57789474 Z M2.94327273,12.57 L2.94327273,22.2568421 L0.113727273,22.2568421 L0.113727273,0.0647368421 L0.228272727,0.0647368421 C1.99827273,0.0647368421 3.76827273,0.0542105263 5.53690909,0.0660526316 C7.09145455,0.0778947368 8.51509091,0.526578947 9.82281818,1.32657895 C11.0991818,2.10552632 12.141,3.12263158 13.0464545,4.27921053 C13.9287273,5.40289474 14.6228182,6.63052632 15.2241818,7.91473684 C16.8714545,11.4318421 18.5432727,14.9371053 20.2055455,18.4463158 C20.7864545,19.6739474 21.3687273,20.8989474 21.9496364,22.1252632 C21.9673636,22.1634211 21.9850909,22.2042105 22.0096364,22.2581579 C21.9578182,22.2607895 21.9196364,22.2634211 21.8814545,22.2634211 C20.9214545,22.2647368 19.9628182,22.2621053 19.0014545,22.2660526 C18.9032727,22.2673684 18.8582727,22.2344737 18.8200909,22.1515789 C17.331,18.9910526 15.8405455,15.8331579 14.3528182,12.6739474 C14.3119091,12.5884211 14.2628182,12.5621053 14.1673636,12.5621053 C10.4746364,12.5647368 6.78190909,12.5647368 3.08781818,12.5647368 C3.04281818,12.5647368 2.99918182,12.5673684 2.94327273,12.57 Z" id="Fill-3" fill="#808080" fill-rule="nonzero" mask="url(#mask-2)"></path>
                </g>
            </g>
            <g id="Group-8" transform="translate(40.909091, 0.010395)">
                <g id="Fill-6-Clipped">
                    <mask id="mask-4" fill="white">
                        <use xlink:href="#path-3"></use>
                    </mask>
                    <g id="path-4"></g>
                    <path d="M0.786136364,11.2442105 C0.831136364,8.52315789 1.87568182,5.93368421 3.99886364,3.77184211 C5.65704545,2.08631579 7.68068182,1.01526316 10.0356818,0.53631579 C11.0720455,0.32578947 12.1220455,0.25473684 13.1747727,0.34026316 C15.3920455,0.51789474 17.3788636,1.285 19.1665909,2.54947368 C19.7720455,2.97973684 20.3284091,3.46394737 20.8452273,3.99157895 C21.6361364,4.80078947 21.2584091,6.10736842 20.1484091,6.36526316 C19.6111364,6.49157895 19.1311364,6.35605263 18.7452273,5.97315789 C18.2584091,5.49157895 17.7470455,5.04289474 17.1715909,4.66131579 C16.1011364,3.95342105 14.9365909,3.47052632 13.6561364,3.25342105 C12.9102273,3.12578947 12.1602273,3.11394737 11.4047727,3.19815789 C9.84886364,3.36921053 8.44022727,3.90078947 7.19522727,4.81131579 C5.41159091,6.11789474 4.27159091,7.83368421 3.88159091,9.9613158 C3.37704545,12.7007895 4.10795455,15.1323684 6.05522727,17.1915789 C7.33295455,18.5415789 8.92840909,19.3718421 10.7925,19.71 C12.9825,20.1060526 14.9979545,19.6573684 16.8675,18.5257895 C17.5425,18.1192105 18.1452273,17.6284211 18.6934091,17.0705263 C19.2593182,16.4942105 20.1102273,16.4257895 20.7225,16.9007895 C21.3470455,17.3863158 21.4547727,18.2863158 20.9447727,18.8823684 C20.5315909,19.3639474 20.0461364,19.7771053 19.5415909,20.1665789 C18.1329545,21.2507895 16.5579545,22.0126316 14.8002273,22.4113158 C13.7925,22.6402632 12.7711364,22.7231579 11.7361364,22.6678947 C9.63068182,22.5547368 7.69431818,21.9481579 5.95159091,20.8086842 C3.31840909,19.085 1.67386364,16.7073684 1.01522727,13.7034211 C0.855681818,12.9757895 0.792954545,12.2376316 0.786136364,11.2442105" id="Fill-6" fill="#808080" mask="url(#mask-4)"></path>
                </g>
            </g>
            <path d="M31.9993636,3.12605263 L25.2302727,3.12605263 L25.2302727,0.39578947 L41.6539091,0.39578947 L41.6539091,3.11947368 L34.863,3.11947368 L34.863,3.30894737 L34.863,19.0918421 L34.863,22.4642105 C34.863,22.6115789 34.863,22.6115789 34.7075455,22.6115789 C33.8675455,22.6115789 33.0275455,22.6128947 32.1875455,22.6115789 C31.9898182,22.6115789 32.0007273,22.6392105 31.9993636,22.4326316 L31.9993636,3.33 L31.9993636,3.12605263 Z" id="Fill-9" fill="#808080"></path>
            <path d="M54.9867273,9.9631579 C56.8603636,9.9631579 58.734,9.9657895 60.609,9.9618421 C61.0385455,9.9605263 61.4326364,10.0539474 61.7571818,10.3342105 C62.2276364,10.7394737 62.4035455,11.25 62.2426364,11.8368421 C62.0817273,12.4210526 61.6658182,12.7802632 61.0549091,12.9184211 C60.9403636,12.9460526 60.819,12.9526316 60.7003636,12.9526316 C56.8849091,12.9552632 53.0694545,12.9552632 49.254,12.9539474 C48.4521818,12.9539474 47.8071818,12.4276316 47.6817273,11.6710526 C47.5521818,10.8960526 48.1412727,10.1118421 48.9512727,9.9907895 C49.0876364,9.9710526 49.2253636,9.9644737 49.3630909,9.9644737 C51.2380909,9.9631579 53.1117273,9.9631579 54.9867273,9.9631579" id="Fill-11" fill="#808080"></path>
        </g>
    </g>
</svg>