<svg id="Lag_1" data-name="Lag 1" xmlns="http://www.w3.org/2000/svg" viewBox="0 0 580.06 64.39"><defs><style>.cls-1{fill:gray;}</style></defs><title>Nordnet-Logo-Grey</title><polygon class="cls-1" points="214.6 1.46 139.94 63.14 176.36 63.14 251.02 1.46 214.6 1.46"/><polygon class="cls-1" points="74.66 1.46 0 63.14 36.42 63.14 111.08 1.46 74.66 1.46"/><rect class="cls-1" x="111.08" y="1.46" width="28.9" height="61.68"/><path class="cls-1" d="M337.81,230.79H324.22l-.09-.15-15.72-25.2c-3.75-5.88-8-12.73-11.71-19.33.31,6.89.46,14.57.46,22.85v21.83H284.57v-63h13.85l.1.15,16.59,26.6c3.52,5.54,7.2,11.46,10.48,17.31-.32-7-.37-14.52-.37-21.09v-23h12.59Z" transform="translate(-9.97 -167.81)"/><path class="cls-1" d="M365.4,194.1c-6.89,0-11.35,5.45-11.35,13.89s4.46,13.89,11.35,13.89,11.26-5.45,11.26-13.89-4.52-13.89-11.26-13.89m0,38.09c-13.89,0-23.59-9.95-23.59-24.2s9.7-24.21,23.59-24.21,23.51,10,23.51,24.21-9.67,24.2-23.51,24.2" transform="translate(-9.97 -167.81)"/><path class="cls-1" d="M404.53,230.79H392.46V185.28h11.19v5.81A12.36,12.36,0,0,1,415,184.57a31,31,0,0,1,5.6.45l.26,0v11.09l-.37,0a38.51,38.51,0,0,0-5.05-.44c-7,0-10.91,4.53-10.91,12.76Z" transform="translate(-9.97 -167.81)"/><path class="cls-1" d="M443.18,194.44c-6.47,0-10.82,5.48-10.82,13.64,0,8.33,4.18,13.72,10.65,13.72s11-5.52,11-13.72-4.35-13.64-10.83-13.64m-2.89,37.67c-12.07,0-20.17-9.66-20.17-24,0-14.2,8.37-24.12,20.34-24.12,5.63,0,10.07,1.78,13.2,5.31V167.81h12.06v63H454.44v-5.26c-3.22,4.36-8,6.58-14.15,6.58" transform="translate(-9.97 -167.81)"/><path class="cls-1" d="M512.42,230.79H500.36V203c0-5.61-2.88-8.71-8.1-8.71s-8.63,3.64-8.63,9.07v27.45H471.56V185.28h11.19v4.51c3.06-3.88,7.73-6,13.28-6,10.11,0,16.39,6.12,16.39,16Z" transform="translate(-9.97 -167.81)"/><path class="cls-1" d="M528.22,202.66h20.57c-.55-5.9-4.15-9.27-9.92-9.27-5.5,0-9.27,3.29-10.65,9.27m11.36,29.53c-14.45,0-23.42-9.17-23.42-23.94s9.2-24.47,22.89-24.47,21.31,8.32,21.31,22.8c0,1.37-.09,3.52-.18,4.43l0,.29H527.84c1,6.73,5.19,10.58,11.47,10.58,3.19,0,7.36-1,9.09-5.84l.08-.21h11.6l-.08.39c-2,10-9.68,16-20.42,16" transform="translate(-9.97 -167.81)"/><path class="cls-1" d="M580.49,231.84c-9.28,0-13.24-3.82-13.24-12.79V194.44h-8v-9.16h8v-13.7h12.07v13.7H590v9.16H579.32V217c0,3.46,1.62,4.15,4.24,4.15a25.33,25.33,0,0,0,5.28-.69l.4-.09v10.14l-.24.06a33.91,33.91,0,0,1-8.51,1.24" transform="translate(-9.97 -167.81)"/></svg>