<svg id="Lag_1" data-name="Lag 1" xmlns="http://www.w3.org/2000/svg" viewBox="0 0 341.69 106.43"><defs><style>.cls-1{fill:gray;}</style></defs><title>SBAB-Logo-Grey</title><path class="cls-1" d="M179.48,171.2c-4.64-5.59-9-8-15.55-8-7,0-12.27,3.4-12.27,10.91,0,7,7.36,11.86,17.59,16.5,16.23,7.36,26.19,16.78,26.19,33.14,0,18-13.23,29.47-33.69,29.47-15.41,0-24.41-6.55-32.6-15.55l11.6-13.1c5.86,7.09,12,10.92,19.64,10.92,8,0,16-3.69,16-11.74,0-7.36-7.1-12-17.74-17.32-17.45-8.73-26.05-17.46-26.05-32.32,0-14.46,10.91-27.28,29.33-27.28,12.54,0,21.68,4.64,28.09,12.55Z" transform="translate(-129.15 -146.79)"/><path class="cls-1" d="M205.79,148h18.82V250.44H205.79Zm23.88,16.06V148H233c16.89,0,34.54,5.12,34.54,28.38,0,10.1-4.57,16.06-11.08,19.52,9.42,3.46,16.61,10.24,16.61,23.67,0,22.14-18.43,30.87-35.32,30.87h-8.07V234.39h6.69c11.35,0,17.6-4.71,17.6-14.81,0-9.42-6.25-14.81-17.6-14.81h-6.69V188.71h1.94c11.35,0,16.81-2.22,16.81-12.32,0-9.42-5.46-12.32-16.81-12.32Z" transform="translate(-129.15 -146.79)"/><path class="cls-1" d="M372.29,148h18.82V250.44H372.29Zm23.49,16.06V148h3.32C416,148,434,153.13,434,176.39c0,10.1-4.57,16.06-11.08,19.52,9.42,3.46,16.61,10.24,16.61,23.67,0,22.14-18,30.87-34.92,30.87h-8.86V234.39h7.47c11.35,0,17.21-4.71,17.21-14.81,0-9.42-5.86-14.81-17.21-14.81h-7.47V188.71h1.93c11.35,0,17.21-2.22,17.21-12.32,0-9.42-5.86-12.32-17.21-12.32Z" transform="translate(-129.15 -146.79)"/><path class="cls-1" d="M460.05,231.48a10.76,10.76,0,0,1,10.8,10.94,10.8,10.8,0,0,1-21.6,0,10.76,10.76,0,0,1,10.8-10.94M450.64,148h18.82l-1.38,76.48H452Z" transform="translate(-129.15 -146.79)"/><polygon class="cls-1" points="199.9 1.19 180.52 1.19 146.19 103.62 166.4 103.62 172.91 81.47 202.18 81.47 197.24 64.86 177.75 64.86 190.21 22.64 214.02 103.62 234.23 103.62 199.9 1.19"/></svg>