<svg id="Lag_1" data-name="Lag 1" xmlns="http://www.w3.org/2000/svg" viewBox="0 0 528.19 106.09"><defs><style>.cls-1{fill:gray;}</style></defs><title>Stena-logo-grey</title><g id="STENA"><path class="cls-1" d="M37.24,148.88H140.66V252.31H37.24ZM35.91,253.63H142v-106H35.91Z" transform="translate(-35.91 -147.54)"/><path class="cls-1" d="M43,200.58a45.7,45.7,0,0,0,5.55,21.9l30.07-27.83,9.28-40A46,46,0,0,0,43,200.58m23-5.19c-9.35-.33-10.2-6.65-10.2-6.65l2.76-1.1c.66,1.66,2.29,4.37,7.19,4.55,4.21.14,5.51-1.89,5.59-4,.23-6.56-15-3-14.62-12.57.21-6.1,6.4-7,9.63-6.9,5.56.2,7.82,5.6,7.82,5.6l-2.63,1.1c-.64-.15-1.45-3.39-5.88-3.55-1.12,0-5.23.25-5.35,3.67-.2,5.64,15.1,2.22,14.74,12.49,0,1.46-1.19,7.64-9,7.37" transform="translate(-35.91 -147.54)"/><path class="cls-1" d="M90,154.64l9.28,40,30.07,27.83A46,46,0,0,0,90,154.64m31.29,39.91L119.4,189h-9.78l-1.71,5.53h-3.24L113.36,169h3.91l8.06,25.59Z" transform="translate(-35.91 -147.54)"/><polygon class="cls-1" points="74.97 38.2 82.6 38.2 78.94 26.59 74.97 38.2"/><path class="cls-1" d="M89,212.49l-39.26,12a46,46,0,0,0,78.43,0Zm-.11,31.2c-7.39,0-10.61-6.6-10.61-13s3.15-13.42,10.58-13.42c7.23,0,10.57,6.59,10.57,12.93s-3.23,13.53-10.54,13.53" transform="translate(-35.91 -147.54)"/><path class="cls-1" d="M89,220.41c-5.45,0-6.94,5.88-6.94,10.26,0,4.2,1.7,9.87,6.87,9.87s6.81-6,6.81-10.19a13.94,13.94,0,0,0-1.47-6.66A6.1,6.1,0,0,0,89,220.41" transform="translate(-35.91 -147.54)"/><path class="cls-1" d="M226.22,198.9c-6.61-8.4-16.07-10.7-26-12.08-7.34-1-14.77-2-14.77-9,0-7.64,7.29-8.34,14.09-8.34h24.91V147.56H197.3c-11.31,0-19.79,1.44-27.51,7.65s-10.52,13.36-10.52,23a30,30,0,0,0,8.29,21.17c5,5.06,12.42,8.16,24.91,9.92,7,1,14.4,2.06,14.4,10.54,0,10.74-10.3,10.79-14.56,10.79H162.2v22.74h32.28c9.87,0,16.26-2.14,19.63-3.6a30.28,30.28,0,0,0,15.15-15.08,37.19,37.19,0,0,0,3-15.09c0-7.56-2.28-15.86-6.05-20.66m5.86-51.36v21.93h19.59v83.86h27V169.47h19.4V147.56h-66Zm211.31.05v61.18c-.92-2.17-2.39-5.58-3.58-7.75l-29.54-53.43H384.92V253.33h24.24l0-60.66a64.24,64.24,0,0,0,3.56,7.62l30,53,25.51.05V147.59Zm90,87.58,4.77,18.16,25.94,0L535,147.56H503.51L475.08,253.28H500.5l5.05-18.06ZM306.17,147.59V253.33h70.2V230.59H334.28v-21h31.25V189.23H334.15V169.47h42.44V147.59Zm221.25,66.6H511.05l4.22-16.64c2.23-9.19,3.34-14.83,3.88-18.49.7,3.72,1.46,9.33,3.87,18.49Z" transform="translate(-35.91 -147.54)"/></g></svg>