<?xml version="1.0" encoding="UTF-8"?>
<svg width="41px" height="40px" viewBox="0 0 41 40" version="1.1" xmlns="http://www.w3.org/2000/svg" xmlns:xlink="http://www.w3.org/1999/xlink">
    <!-- Generator: Sketch 51.2 (57519) - http://www.bohemiancoding.com/sketch -->
    <title>5b20a6d1f4d69d7f2a4a18c1_Twitter Icon</title>
    <desc>Created with Sketch.</desc>
    <defs></defs>
    <g id="Symbols" stroke="none" stroke-width="1" fill="none" fill-rule="evenodd">
        <g id="footer" transform="translate(-1153.000000, -541.000000)" fill="#FFFFFF" fill-rule="nonzero">
            <g id="footer-2">
                <g id="Group-22" transform="translate(1100.000000, 91.000000)">
                    <g id="Connect" transform="translate(0.000000, 411.000000)">
                        <g id="5b20a6d1f4d69d7f2a4a18c1_Twitter-Icon" transform="translate(53.333333, 39.000000)">
                            <path d="M20,0 C8.954305,-6.76353751e-16 1.3527075e-15,8.954305 0,20 C-1.3527075e-15,31.045695 8.954305,40 20,40 C31.045695,40 40,31.045695 40,20 C40,14.6956702 37.8928632,9.60859195 34.1421356,5.85786438 C30.3914081,2.10713681 25.3043298,3.24796525e-16 20,0 Z M27.85,16 C27.85,16.17 27.85,16.35 27.85,16.52 C27.8549428,20.7344881 25.5580778,24.6152842 21.8611455,26.6388024 C18.1642132,28.6623206 13.6573755,28.5055354 10.11,26.23 C10.4416956,26.2714901 10.775723,26.2915318 11.11,26.29 C12.9243816,26.2856348 14.684895,25.6729761 16.11,24.55 C14.37364,24.533093 12.8465093,23.397845 12.33,21.74 C12.5803131,21.7889823 12.834951,21.8124358 13.09,21.81 C13.4512176,21.8097618 13.8108806,21.762703 14.16,21.67 C12.2475826,21.3052637 10.8755294,19.6165829 10.91,17.67 L10.91,17.62 C11.4710803,17.9310003 12.0987312,18.1024896 12.74,18.12 C10.9625864,16.927973 10.415673,14.5609319 11.49,12.71 C13.5441392,15.2459474 16.5805215,16.787775 19.84,16.95 C19.5270532,15.738925 19.79866,14.4511834 20.5740634,13.4696601 C21.3494668,12.4881368 22.539378,11.9258556 23.79,11.95 C24.9090944,11.9452109 25.9790191,12.4094494 26.74,13.23 C27.6503826,13.0450342 28.52277,12.7068995 29.32,12.23 C29.0117279,13.1644783 28.3806849,13.9585997 27.54,14.47 C28.3405443,14.3716437 29.1222539,14.1559996 29.86,13.83 C29.3264496,14.6718693 28.6415614,15.4076156 27.84,16 L27.85,16 Z" id="Shape"></path>
                        </g>
                    </g>
                </g>
            </g>
        </g>
    </g>
</svg>