<svg id="Lag_1" data-name="Lag 1" xmlns="http://www.w3.org/2000/svg" viewBox="0 0 481.54 106.43"><defs><style>.cls-1{fill:gray;}</style></defs><title>WW-Logo-Grey</title><path class="cls-1" d="M115.88,231.78,87.26,148.52c-.19-.6-.51-.75-.89-.75H60a.81.81,0,0,0-.75,1L94.21,251.89a.94.94,0,0,0,1,.75h11.91a.84.84,0,0,0,.85-.61l7.94-19.66A.93.93,0,0,0,115.88,231.78Z" transform="translate(-59.23 -146.79)"/><path class="cls-1" d="M165.5,231.78l-28.62-83.26c-.2-.6-.52-.75-.89-.75H109.62a.8.8,0,0,0-.74,1l34.94,103.07a1,1,0,0,0,1,.74h11.92a.84.84,0,0,0,.84-.61l7.94-19.66A.84.84,0,0,0,165.5,231.78Z" transform="translate(-59.23 -146.79)"/><path class="cls-1" d="M177.56,153.55A8.4,8.4,0,1,0,186,162a8.41,8.41,0,0,0-8.4-8.4m0,23.56A15.16,15.16,0,1,1,192.72,162a15.18,15.18,0,0,1-15.16,15.16" transform="translate(-59.23 -146.79)"/><path class="cls-1" d="M268.82,181.71a.29.29,0,0,0,.58,0l6-33.65a.35.35,0,0,1,.35-.29h7.13a.31.31,0,0,1,.29.41l-8.06,40.43a.37.37,0,0,1-.35.29H263.5a.32.32,0,0,1-.35-.29l-6.84-33.71a.33.33,0,0,0-.64,0l-6.84,33.71c-.06.17-.12.29-.29.29H237.26a.36.36,0,0,1-.35-.29l-8.06-40.43a.31.31,0,0,1,.29-.41h7.13a.35.35,0,0,1,.35.29l6,33.65a.3.3,0,0,0,.58,0L250,148.06a.35.35,0,0,1,.35-.29h11.27a.35.35,0,0,1,.35.29Z" transform="translate(-59.23 -146.79)"/><path class="cls-1" d="M296.8,189.48c-7.95,0-11.57-4.08-11.57-9.4,0-5,4.26-9.46,12.79-9.46h5.5c1.16,0,1.75-.7,1.75-1.29,0-1.22-.41-4.14-6.13-4.14-4.44,0-5.73,1.86-5.9,3.85a.28.28,0,0,1-.29.29h-6.37a.28.28,0,0,1-.29-.29c0-6.89,5.95-10.28,12.85-10.28,8.06,0,13.14,3.8,13.14,11.1v11.33a1.88,1.88,0,0,0,2.1,1.87h.88a.28.28,0,0,1,.29.29v5.25a.28.28,0,0,1-.29.29h-3c-3,0-4.62-1.16-5.72-2.8a.34.34,0,0,0-.53,0A13,13,0,0,1,296.8,189.48Zm8.46-12.73a.28.28,0,0,0-.29-.29h-6.66c-5.2,0-6.07,2.1-6.07,3.62,0,1.23,1.05,3,4.56,3C302.81,183.06,305.26,179.67,305.26,176.75Z" transform="translate(-59.23 -146.79)"/><path class="cls-1" d="M321.3,188.89a.28.28,0,0,1-.29-.29V148.06a.28.28,0,0,1,.29-.29h6.43a.28.28,0,0,1,.29.29V188.6a.28.28,0,0,1-.29.29Z" transform="translate(-59.23 -146.79)"/><path class="cls-1" d="M335.89,188.89a.28.28,0,0,1-.3-.29V148.06a.28.28,0,0,1,.3-.29h6.42a.28.28,0,0,1,.3.29V188.6a.28.28,0,0,1-.3.29Z" transform="translate(-59.23 -146.79)"/><path class="cls-1" d="M376.48,176.81H356.15a.28.28,0,0,0-.29.29c0,3.21,2.8,6,6.95,6,2.57,0,4.67-.65,5.66-2.64a.47.47,0,0,1,.46-.29h6.84c.17,0,.35.12.29.29-1.28,5.67-6.59,9.06-13.25,9.06-8.53,0-14.26-6.25-14.26-15.37s5.73-15.37,14.26-15.37,14.25,6.25,14.25,15.37a11.66,11.66,0,0,1-.29,2.4C376.72,176.69,376.66,176.81,376.48,176.81ZM369.35,171c.18,0,.24-.06.24-.23,0-2.33-2-5.54-6.78-5.54s-6.95,3.27-6.95,5.54c0,.17.06.23.23.23Z" transform="translate(-59.23 -146.79)"/><path class="cls-1" d="M397.79,158.75c9.17,0,12.32,6.54,12.32,13.9V188.6a.28.28,0,0,1-.29.29H403.4a.28.28,0,0,1-.3-.29V172.66c0-3.51-1.86-7.47-6.48-7.47s-6.43,3.38-6.43,6.89v16.53a.28.28,0,0,1-.29.29h-6.43a.28.28,0,0,1-.29-.29v-29a.28.28,0,0,1,.29-.29H389c.36,0,.47.06.53.29l.64,1.81a.36.36,0,0,0,.64.06A11.73,11.73,0,0,1,397.79,158.75Z" transform="translate(-59.23 -146.79)"/><path class="cls-1" d="M417.88,155.48a.28.28,0,0,1-.29-.29v-7.13a.28.28,0,0,1,.29-.29h7a.28.28,0,0,1,.29.29v7.13a.28.28,0,0,1-.29.29Zm.29,33.41a.28.28,0,0,1-.29-.29v-29a.28.28,0,0,1,.29-.29h6.43a.28.28,0,0,1,.29.29v29a.28.28,0,0,1-.29.29h-6.43Z" transform="translate(-59.23 -146.79)"/><path class="cls-1" d="M444.31,189.48c-9.75,0-12.91-6.54-12.91-13.9v-16a.28.28,0,0,1,.3-.29h6.42a.28.28,0,0,1,.29.29v16c0,3.51,1.87,7.48,6.49,7.48s6.43-3.39,6.43-6.89V159.63a.28.28,0,0,1,.29-.29h6.49a.26.26,0,0,1,.23.29v29a.28.28,0,0,1-.29.29H452.5a.55.55,0,0,1-.59-.35l-.58-1.76a.36.36,0,0,0-.64-.06A10,10,0,0,1,444.31,189.48Z" transform="translate(-59.23 -146.79)"/><path class="cls-1" d="M477.69,189.48c-8.7,0-13.32-5-13.32-10.28a.28.28,0,0,1,.3-.29h6.72a.28.28,0,0,1,.29.29c0,1.87,1.81,3.86,6,3.86,2.45,0,6-.47,6-3.33,0-2.57-3.57-2.57-6-2.8-6-.64-12.79-1.7-12.79-9.06,0-5,4.9-9.11,12.2-9.11s12.74,3.5,12.8,10.28c0,.17-.06.29-.23.29h-6.54a.28.28,0,0,1-.29-.29c0-1.63-1.46-3.85-5.73-3.85-3.5,0-5.2,1.16-5.2,2.68,0,1.87,2.51,2.22,5.2,2.57,5.14.64,13.55,1,13.55,9.29C490.66,186,485.64,189.48,477.69,189.48Z" transform="translate(-59.23 -146.79)"/><path class="cls-1" d="M268.82,245.45a.29.29,0,0,0,.58,0l6-33.65a.35.35,0,0,1,.35-.29h7.13a.31.31,0,0,1,.29.41l-8.06,40.43a.37.37,0,0,1-.35.29H263.5a.32.32,0,0,1-.35-.29l-6.84-33.71a.33.33,0,0,0-.64,0l-6.84,33.71c-.06.17-.12.29-.29.29H237.26a.36.36,0,0,1-.35-.29l-8.06-40.43a.31.31,0,0,1,.29-.41h7.13a.35.35,0,0,1,.35.29l6,33.65a.3.3,0,0,0,.58,0L250,211.8a.35.35,0,0,1,.35-.29h11.27a.35.35,0,0,1,.35.29Z" transform="translate(-59.23 -146.79)"/><path class="cls-1" d="M289.6,219.22a.28.28,0,0,1-.29-.3v-7.13a.28.28,0,0,1,.29-.29h7a.28.28,0,0,1,.29.29v7.13a.28.28,0,0,1-.29.3Zm.29,33.41a.28.28,0,0,1-.29-.29v-29a.28.28,0,0,1,.29-.29h6.43a.28.28,0,0,1,.29.29v29a.28.28,0,0,1-.29.29Z" transform="translate(-59.23 -146.79)"/><path class="cls-1" d="M304.19,252.63a.28.28,0,0,1-.29-.29V211.8a.28.28,0,0,1,.29-.29h6.43a.28.28,0,0,1,.29.29v40.54a.28.28,0,0,1-.29.29Z" transform="translate(-59.23 -146.79)"/><path class="cls-1" d="M338.7,252.63a.28.28,0,0,1-.29-.29v-16c0-3.5-1.87-7.24-6.49-7.24s-6.43,3.15-6.43,6.66v16.53a.28.28,0,0,1-.29.29h-6.43a.28.28,0,0,1-.29-.29V211.8a.28.28,0,0,1,.29-.29h6.43a.31.31,0,0,1,.29.29v13.26c0,.35.29.46.58.17a10.9,10.9,0,0,1,7-2.74c8.53,0,12.33,6.54,12.33,13.9v16a.28.28,0,0,1-.29.29Z" transform="translate(-59.23 -146.79)"/><path class="cls-1" d="M379.12,240.54H358.79a.28.28,0,0,0-.29.29c0,3.21,2.81,6,6.95,6,2.58,0,4.67-.65,5.67-2.63a.48.48,0,0,1,.46-.3h6.84c.17,0,.35.12.29.3-1.28,5.66-6.6,9.05-13.26,9.05-8.52,0-14.25-6.25-14.25-15.37s5.73-15.37,14.25-15.37,14.26,6.25,14.26,15.37a11.66,11.66,0,0,1-.29,2.4C379.36,240.43,379.3,240.54,379.12,240.54ZM372,234.7c.17,0,.23-.06.23-.23,0-2.33-2-5.54-6.77-5.54s-7,3.27-7,5.54c0,.17.06.23.24.23Z" transform="translate(-59.23 -146.79)"/><path class="cls-1" d="M386.29,252.63a.28.28,0,0,1-.29-.29V211.8a.28.28,0,0,1,.29-.29h6.43a.28.28,0,0,1,.29.29v40.54a.28.28,0,0,1-.29.29Z" transform="translate(-59.23 -146.79)"/><path class="cls-1" d="M435.92,252.63a.28.28,0,0,1-.29-.29V236.16c0-3.51-1.29-7.24-5.31-7.24s-5.27,3.15-5.27,7.24v16.18a.28.28,0,0,1-.29.29h-6.43a.27.27,0,0,1-.29-.29V236.16c0-3.51-1.28-7.24-5.31-7.24s-5.25,3.15-5.25,7.24v16.18a.28.28,0,0,1-.3.29h-6.42a.28.28,0,0,1-.3-.29v-29a.28.28,0,0,1,.3-.29h5.54a.53.53,0,0,1,.58.35l.59,1.76a.31.31,0,0,0,.52.12,11.69,11.69,0,0,1,7.07-2.8,9.12,9.12,0,0,1,7.59,3.44.29.29,0,0,0,.48,0,10.15,10.15,0,0,1,7.77-3.44c7.36,0,11.74,4.21,11.74,13.32v16.53a.28.28,0,0,1-.29.29h-6.43Z" transform="translate(-59.23 -146.79)"/><path class="cls-1" d="M461.68,253.21c-8.7,0-13.31-5-13.31-10.28a.28.28,0,0,1,.29-.29h6.72a.28.28,0,0,1,.29.29c0,1.87,1.81,3.86,6,3.86,2.45,0,6-.47,6-3.33,0-2.57-3.57-2.57-6-2.8-6-.64-12.79-1.7-12.79-9.06,0-5,4.9-9.11,12.2-9.11s12.74,3.5,12.8,10.28c0,.18-.06.3-.23.3h-6.54a.28.28,0,0,1-.29-.3c0-1.63-1.46-3.85-5.73-3.85-3.5,0-5.2,1.16-5.2,2.68,0,1.87,2.51,2.22,5.2,2.57,5.14.64,13.55,1,13.55,9.29C474.65,249.71,469.63,253.21,461.68,253.21Z" transform="translate(-59.23 -146.79)"/><path class="cls-1" d="M507.13,240.54H486.8a.28.28,0,0,0-.29.29c0,3.21,2.8,6,6.95,6,2.57,0,4.67-.65,5.67-2.63a.48.48,0,0,1,.46-.3h6.84c.17,0,.35.12.29.3-1.28,5.66-6.6,9.05-13.26,9.05-8.52,0-14.25-6.25-14.25-15.37s5.73-15.37,14.25-15.37,14.26,6.25,14.26,15.37a10.9,10.9,0,0,1-.3,2.4C507.37,240.43,507.31,240.54,507.13,240.54ZM500,234.7c.17,0,.23-.06.23-.23,0-2.33-2-5.54-6.78-5.54s-6.95,3.27-6.95,5.54c0,.17.06.23.23.23Z" transform="translate(-59.23 -146.79)"/><path class="cls-1" d="M528.45,222.49c9.17,0,12.32,6.54,12.32,13.9v16a.28.28,0,0,1-.29.29h-6.43a.28.28,0,0,1-.29-.29v-16c0-3.5-1.87-7.47-6.49-7.47s-6.42,3.38-6.42,6.89v16.53a.28.28,0,0,1-.3.29h-6.42a.28.28,0,0,1-.29-.29v-29a.28.28,0,0,1,.29-.29h5.54c.35,0,.47.06.52.29l.65,1.81a.36.36,0,0,0,.64.06A11.7,11.7,0,0,1,528.45,222.49Z" transform="translate(-59.23 -146.79)"/></svg>